<?xml version="1.0" encoding="utf-8"?>
<!-- Generator: Adobe Illustrator 27.5.0, SVG Export Plug-In . SVG Version: 6.00 Build 0)  -->
<svg version="1.1" xmlns="http://www.w3.org/2000/svg" xmlns:xlink="http://www.w3.org/1999/xlink" x="0px" y="0px"
	 viewBox="0 0 500 500" style="enable-background:new 0 0 500 500;" xml:space="preserve">
<g id="BACKGROUND">
	<rect id="XMLID_17_" style="fill:#ECF0F1;" width="500" height="500"/>
</g>
<g id="OBJECTS">
	<g id="XMLID_1_">
		<path id="XMLID_2_" style="fill:#F1C40F;" d="M226.255,165.009H42.699c-5.527,0-10.007-4.48-10.007-10.007V95.715
			c0-5.527,4.48-10.007,10.007-10.007h183.556c5.527,0,10.007,4.48,10.007,10.007v59.287
			C236.261,160.529,231.781,165.009,226.255,165.009z"/>
		<path id="XMLID_21_" style="fill:#E74C3C;" d="M104.582,85.709H42.699c-5.527,0-10.007,4.48-10.007,10.007v59.287
			c0,5.527,4.48,10.007,10.007,10.007h61.883V85.709z"/>
		<g id="XMLID_10_">
			<path id="XMLID_9_" style="fill:#E74C3C;" d="M122.632,97.783l1.182,2.395c0.076,0.153,0.222,0.26,0.392,0.285l2.643,0.384
				c0.427,0.062,0.597,0.586,0.288,0.887l-1.913,1.865c-0.123,0.119-0.179,0.292-0.15,0.46l0.451,2.633
				c0.073,0.425-0.373,0.749-0.755,0.548l-2.364-1.243c-0.152-0.08-0.333-0.08-0.484,0l-2.364,1.243
				c-0.382,0.201-0.828-0.123-0.755-0.548l0.452-2.633c0.029-0.169-0.027-0.341-0.15-0.46l-1.913-1.865
				c-0.309-0.301-0.138-0.825,0.288-0.887l2.643-0.384c0.169-0.025,0.316-0.131,0.392-0.285l1.182-2.395
				C121.89,97.397,122.441,97.397,122.632,97.783z"/>
			<path id="XMLID_11_" style="fill:#E74C3C;" d="M136.922,97.783l1.182,2.395c0.076,0.153,0.222,0.26,0.392,0.285l2.643,0.384
				c0.427,0.062,0.597,0.586,0.288,0.887l-1.913,1.865c-0.123,0.119-0.179,0.292-0.15,0.46l0.451,2.633
				c0.073,0.425-0.373,0.749-0.755,0.548l-2.364-1.243c-0.152-0.08-0.333-0.08-0.484,0l-2.364,1.243
				c-0.382,0.201-0.828-0.123-0.755-0.548l0.452-2.633c0.029-0.169-0.027-0.341-0.15-0.46l-1.913-1.865
				c-0.309-0.301-0.138-0.825,0.288-0.887l2.643-0.384c0.169-0.025,0.316-0.131,0.392-0.285l1.182-2.395
				C136.18,97.397,136.731,97.397,136.922,97.783z"/>
			<path id="XMLID_14_" style="fill:#E74C3C;" d="M151.212,97.783l1.182,2.395c0.076,0.153,0.222,0.26,0.392,0.285l2.643,0.384
				c0.427,0.062,0.597,0.586,0.288,0.887l-1.913,1.865c-0.123,0.119-0.179,0.292-0.15,0.46l0.451,2.633
				c0.073,0.425-0.373,0.749-0.755,0.548l-2.364-1.243c-0.152-0.08-0.333-0.08-0.484,0l-2.364,1.243
				c-0.382,0.201-0.828-0.123-0.755-0.548l0.452-2.633c0.029-0.169-0.027-0.341-0.15-0.46l-1.913-1.865
				c-0.309-0.301-0.138-0.825,0.288-0.887l2.643-0.384c0.169-0.025,0.316-0.131,0.392-0.285l1.182-2.395
				C150.469,97.397,151.021,97.397,151.212,97.783z"/>
			<path id="XMLID_18_" style="fill:#FFFFFF;" d="M165.501,97.783l1.182,2.395c0.076,0.153,0.222,0.26,0.392,0.285l2.643,0.384
				c0.427,0.062,0.597,0.586,0.288,0.887l-1.913,1.865c-0.123,0.119-0.179,0.292-0.15,0.46l0.452,2.633
				c0.073,0.425-0.373,0.749-0.755,0.548l-2.364-1.243c-0.152-0.08-0.333-0.08-0.484,0l-2.364,1.243
				c-0.382,0.201-0.828-0.123-0.755-0.548l0.452-2.633c0.029-0.169-0.027-0.341-0.15-0.46l-1.913-1.865
				c-0.309-0.301-0.138-0.825,0.288-0.887l2.643-0.384c0.169-0.025,0.316-0.131,0.392-0.285l1.182-2.395
				C164.759,97.397,165.31,97.397,165.501,97.783z"/>
			<path id="XMLID_24_" style="fill:#FFFFFF;" d="M179.791,97.783l1.182,2.395c0.076,0.153,0.222,0.26,0.392,0.285l2.643,0.384
				c0.427,0.062,0.597,0.586,0.288,0.887l-1.913,1.865c-0.123,0.119-0.179,0.292-0.15,0.46l0.452,2.633
				c0.073,0.425-0.373,0.749-0.755,0.548l-2.364-1.243c-0.152-0.08-0.333-0.08-0.484,0l-2.364,1.243
				c-0.382,0.201-0.828-0.123-0.755-0.548l0.451-2.633c0.029-0.169-0.027-0.341-0.15-0.46l-1.913-1.865
				c-0.309-0.301-0.138-0.825,0.288-0.887l2.643-0.384c0.169-0.025,0.316-0.131,0.392-0.285l1.182-2.395
				C179.049,97.397,179.6,97.397,179.791,97.783z"/>
		</g>
		<g id="XMLID_3_">
			<g id="XMLID_4_">
				
					<ellipse id="XMLID_7_" transform="matrix(0.9871 -0.1602 0.1602 0.9871 -16.894 12.4277)" style="fill:#FFFFFF;" cx="68.637" cy="111" rx="13.933" ry="13.933"/>
				<g id="XMLID_6_">
					<g id="XMLID_185_">
						<path id="XMLID_186_" style="fill:#34495E;" d="M73.066,112.862c0.583,0.339,1.044,0.8,1.382,1.382
							c0.339,0.583,0.508,1.213,0.508,1.89v0.733c0,0.376-0.132,0.696-0.395,0.959c-0.264,0.263-0.583,0.395-0.959,0.395h-9.93
							c-0.376,0-0.696-0.132-0.959-0.395c-0.264-0.264-0.395-0.583-0.395-0.959v-0.733c0-0.677,0.169-1.307,0.508-1.89
							c0.339-0.583,0.799-1.044,1.382-1.382c0.583-0.339,1.213-0.508,1.89-0.508c0.244,0,0.564,0.066,0.959,0.198
							c0.263,0.075,0.479,0.132,0.649,0.169c0.282,0.056,0.592,0.085,0.931,0.085c0.339,0,0.649-0.028,0.931-0.085
							c0.169-0.037,0.385-0.094,0.649-0.169c0.395-0.131,0.715-0.198,0.959-0.198C71.853,112.354,72.483,112.524,73.066,112.862z
							 M66.606,111.353c-0.621-0.367-1.114-0.86-1.481-1.481c-0.367-0.621-0.55-1.298-0.55-2.031c0-0.733,0.183-1.41,0.55-2.031
							c0.367-0.621,0.86-1.114,1.481-1.481c0.621-0.367,1.298-0.55,2.031-0.55c0.733,0,1.411,0.183,2.031,0.55
							c0.621,0.367,1.114,0.86,1.481,1.481c0.367,0.621,0.55,1.298,0.55,2.031c0,0.734-0.183,1.41-0.55,2.031
							c-0.367,0.621-0.86,1.114-1.481,1.481c-0.621,0.367-1.298,0.55-2.031,0.55C67.903,111.903,67.227,111.72,66.606,111.353z"/>
					</g>
				</g>
			</g>
			<path id="XMLID_15_" style="fill:#FFFFFF;" d="M95.73,131.623H41.544c-1.137,0-2.059,0.922-2.059,2.058v0
				c0,1.137,0.922,2.059,2.059,2.059H95.73c1.137,0,2.058-0.922,2.058-2.059v0C97.788,132.545,96.867,131.623,95.73,131.623z"/>
			<path id="XMLID_16_" style="fill:#FFFFFF;" d="M95.73,140.578H41.544c-1.137,0-2.059,0.922-2.059,2.059l0,0
				c0,1.137,0.922,2.059,2.059,2.059H95.73c1.137,0,2.058-0.922,2.058-2.059l0,0C97.788,141.5,96.867,140.578,95.73,140.578z"/>
			<path id="XMLID_19_" style="fill:#FFFFFF;" d="M95.73,149.533H41.544c-1.137,0-2.059,0.922-2.059,2.059l0,0
				c0,1.137,0.922,2.059,2.059,2.059H95.73c1.137,0,2.058-0.922,2.058-2.059l0,0C97.788,150.454,96.867,149.533,95.73,149.533z"/>
		</g>
		<g id="XMLID_41_">
			<path id="XMLID_22_" style="fill:#FFFFFF;" d="M218.18,136.965h-99.086c-1.137,0-2.059-0.922-2.059-2.059l0,0
				c0-1.137,0.922-2.059,2.059-2.059h99.086c1.137,0,2.059,0.922,2.059,2.059l0,0C220.239,136.044,219.317,136.965,218.18,136.965z"
				/>
			<path id="XMLID_23_" style="fill:#FFFFFF;" d="M218.18,120.281h-99.086c-1.137,0-2.059-0.922-2.059-2.059l0,0
				c0-1.137,0.922-2.059,2.059-2.059h99.086c1.137,0,2.059,0.922,2.059,2.059l0,0C220.239,119.359,219.317,120.281,218.18,120.281z"
				/>
			<path id="XMLID_34_" style="fill:#FFFFFF;" d="M218.18,128.623h-99.086c-1.137,0-2.059-0.922-2.059-2.059l0,0
				c0-1.137,0.922-2.059,2.059-2.059h99.086c1.137,0,2.059,0.922,2.059,2.059l0,0C220.239,127.701,219.317,128.623,218.18,128.623z"
				/>
			<path id="XMLID_37_" style="fill:#FFFFFF;" d="M218.18,145.308h-99.086c-1.137,0-2.059-0.922-2.059-2.059l0,0
				c0-1.137,0.922-2.059,2.059-2.059h99.086c1.137,0,2.059,0.922,2.059,2.059l0,0C220.239,144.386,219.317,145.308,218.18,145.308z"
				/>
			<path id="XMLID_38_" style="fill:#FFFFFF;" d="M189.257,153.65h-70.163c-1.137,0-2.059-0.922-2.059-2.059l0,0
				c0-1.137,0.922-2.059,2.059-2.059h70.163c1.137,0,2.059,0.922,2.059,2.059l0,0C191.316,152.728,190.395,153.65,189.257,153.65z"
				/>
		</g>
		<path id="XMLID_40_" style="fill:#F1C40F;" d="M187.748,165.009l15.387,11.044c1.427,1.024,3.415,0.004,3.415-1.753v-9.291
			H187.748z"/>
	</g>
	<g id="XMLID_30_">
		<path id="XMLID_141_" style="fill:#F1C40F;" d="M226.255,385.839H42.699c-5.527,0-10.007-4.48-10.007-10.007v-59.287
			c0-5.527,4.48-10.007,10.007-10.007h183.556c5.527,0,10.007,4.48,10.007,10.007v59.287
			C236.261,381.359,231.781,385.839,226.255,385.839z"/>
		<path id="XMLID_138_" style="fill:#E74C3C;" d="M104.582,306.539H42.699c-5.527,0-10.007,4.48-10.007,10.007v59.287
			c0,5.527,4.48,10.007,10.007,10.007h61.883V306.539z"/>
		<g id="XMLID_118_">
			<path id="XMLID_135_" style="fill:#E74C3C;" d="M122.632,318.613l1.182,2.395c0.076,0.154,0.222,0.26,0.392,0.285l2.643,0.384
				c0.427,0.062,0.597,0.586,0.288,0.887l-1.913,1.865c-0.123,0.12-0.179,0.292-0.15,0.46l0.451,2.633
				c0.073,0.425-0.373,0.749-0.755,0.548l-2.364-1.243c-0.152-0.08-0.333-0.08-0.484,0l-2.364,1.243
				c-0.382,0.201-0.828-0.124-0.755-0.548l0.452-2.633c0.029-0.169-0.027-0.341-0.15-0.46l-1.913-1.865
				c-0.309-0.301-0.138-0.825,0.288-0.887l2.643-0.384c0.169-0.025,0.316-0.131,0.392-0.285l1.182-2.395
				C121.89,318.227,122.441,318.227,122.632,318.613z"/>
			<path id="XMLID_132_" style="fill:#E74C3C;" d="M136.922,318.613l1.182,2.395c0.076,0.154,0.222,0.26,0.392,0.285l2.643,0.384
				c0.427,0.062,0.597,0.586,0.288,0.887l-1.913,1.865c-0.123,0.12-0.179,0.292-0.15,0.46l0.451,2.633
				c0.073,0.425-0.373,0.749-0.755,0.548l-2.364-1.243c-0.152-0.08-0.333-0.08-0.484,0l-2.364,1.243
				c-0.382,0.201-0.828-0.124-0.755-0.548l0.452-2.633c0.029-0.169-0.027-0.341-0.15-0.46l-1.913-1.865
				c-0.309-0.301-0.138-0.825,0.288-0.887l2.643-0.384c0.169-0.025,0.316-0.131,0.392-0.285l1.182-2.395
				C136.18,318.227,136.731,318.227,136.922,318.613z"/>
			<path id="XMLID_129_" style="fill:#E74C3C;" d="M151.212,318.613l1.182,2.395c0.076,0.154,0.222,0.26,0.392,0.285l2.643,0.384
				c0.427,0.062,0.597,0.586,0.288,0.887l-1.913,1.865c-0.123,0.12-0.179,0.292-0.15,0.46l0.451,2.633
				c0.073,0.425-0.373,0.749-0.755,0.548l-2.364-1.243c-0.152-0.08-0.333-0.08-0.484,0l-2.364,1.243
				c-0.382,0.201-0.828-0.124-0.755-0.548l0.452-2.633c0.029-0.169-0.027-0.341-0.15-0.46l-1.913-1.865
				c-0.309-0.301-0.138-0.825,0.288-0.887l2.643-0.384c0.169-0.025,0.316-0.131,0.392-0.285l1.182-2.395
				C150.469,318.227,151.021,318.227,151.212,318.613z"/>
			<path id="XMLID_126_" style="fill:#E74C3C;" d="M165.501,318.613l1.182,2.395c0.076,0.154,0.222,0.26,0.392,0.285l2.643,0.384
				c0.427,0.062,0.597,0.586,0.288,0.887l-1.913,1.865c-0.123,0.12-0.179,0.292-0.15,0.46l0.452,2.633
				c0.073,0.425-0.373,0.749-0.755,0.548l-2.364-1.243c-0.152-0.08-0.333-0.08-0.484,0l-2.364,1.243
				c-0.382,0.201-0.828-0.124-0.755-0.548l0.452-2.633c0.029-0.169-0.027-0.341-0.15-0.46l-1.913-1.865
				c-0.309-0.301-0.138-0.825,0.288-0.887l2.643-0.384c0.169-0.025,0.316-0.131,0.392-0.285l1.182-2.395
				C164.759,318.227,165.31,318.227,165.501,318.613z"/>
			<path id="XMLID_119_" style="fill:#FFFFFF;" d="M179.791,318.613l1.182,2.395c0.076,0.154,0.222,0.26,0.392,0.285l2.643,0.384
				c0.427,0.062,0.597,0.586,0.288,0.887l-1.913,1.865c-0.123,0.12-0.179,0.292-0.15,0.46l0.452,2.633
				c0.073,0.425-0.373,0.749-0.755,0.548l-2.364-1.243c-0.152-0.08-0.333-0.08-0.484,0l-2.364,1.243
				c-0.382,0.201-0.828-0.124-0.755-0.548l0.451-2.633c0.029-0.169-0.027-0.341-0.15-0.46l-1.913-1.865
				c-0.309-0.301-0.138-0.825,0.288-0.887l2.643-0.384c0.169-0.025,0.316-0.131,0.392-0.285l1.182-2.395
				C179.049,318.227,179.6,318.227,179.791,318.613z"/>
		</g>
		<g id="XMLID_96_">
			<g id="XMLID_106_">
				<circle id="XMLID_116_" style="fill:#FFFFFF;" cx="68.637" cy="331.83" r="13.933"/>
				<g id="XMLID_107_">
					<g id="XMLID_172_">
						<path id="XMLID_173_" style="fill:#34495E;" d="M73.066,333.692c0.583,0.339,1.044,0.8,1.382,1.382
							c0.339,0.583,0.508,1.213,0.508,1.89v0.734c0,0.376-0.132,0.695-0.395,0.959c-0.264,0.263-0.583,0.395-0.959,0.395h-9.93
							c-0.376,0-0.696-0.132-0.959-0.395c-0.264-0.264-0.395-0.583-0.395-0.959v-0.734c0-0.677,0.169-1.307,0.508-1.89
							c0.339-0.583,0.799-1.044,1.382-1.382c0.583-0.339,1.213-0.508,1.89-0.508c0.244,0,0.564,0.066,0.959,0.197
							c0.263,0.075,0.479,0.132,0.649,0.169c0.282,0.056,0.592,0.085,0.931,0.085c0.339,0,0.649-0.028,0.931-0.085
							c0.169-0.037,0.385-0.094,0.649-0.169c0.395-0.131,0.715-0.197,0.959-0.197C71.853,333.185,72.483,333.354,73.066,333.692z
							 M66.606,332.183c-0.621-0.367-1.114-0.86-1.481-1.481c-0.367-0.621-0.55-1.298-0.55-2.031c0-0.733,0.183-1.41,0.55-2.031
							c0.367-0.621,0.86-1.114,1.481-1.481c0.621-0.367,1.298-0.55,2.031-0.55c0.733,0,1.411,0.183,2.031,0.55
							c0.621,0.367,1.114,0.861,1.481,1.481c0.367,0.621,0.55,1.298,0.55,2.031c0,0.733-0.183,1.41-0.55,2.031
							c-0.367,0.621-0.86,1.114-1.481,1.481c-0.621,0.367-1.298,0.55-2.031,0.55C67.903,332.733,67.227,332.55,66.606,332.183z"/>
					</g>
				</g>
			</g>
			<path id="XMLID_105_" style="fill:#FFFFFF;" d="M95.73,352.453H41.544c-1.137,0-2.059,0.922-2.059,2.059l0,0
				c0,1.137,0.922,2.059,2.059,2.059H95.73c1.137,0,2.058-0.922,2.058-2.059l0,0C97.788,353.375,96.867,352.453,95.73,352.453z"/>
			<path id="XMLID_103_" style="fill:#FFFFFF;" d="M95.73,361.408H41.544c-1.137,0-2.059,0.922-2.059,2.059l0,0
				c0,1.137,0.922,2.059,2.059,2.059H95.73c1.137,0,2.058-0.922,2.058-2.059l0,0C97.788,362.33,96.867,361.408,95.73,361.408z"/>
			<path id="XMLID_97_" style="fill:#FFFFFF;" d="M95.73,370.363H41.544c-1.137,0-2.059,0.922-2.059,2.059l0,0
				c0,1.137,0.922,2.059,2.059,2.059H95.73c1.137,0,2.058-0.922,2.058-2.059l0,0C97.788,371.285,96.867,370.363,95.73,370.363z"/>
		</g>
		<g id="XMLID_35_">
			<path id="XMLID_95_" style="fill:#FFFFFF;" d="M218.18,357.796h-99.086c-1.137,0-2.059-0.922-2.059-2.059l0,0
				c0-1.137,0.922-2.059,2.059-2.059h99.086c1.137,0,2.059,0.922,2.059,2.059l0,0C220.239,356.874,219.317,357.796,218.18,357.796z"
				/>
			<path id="XMLID_93_" style="fill:#FFFFFF;" d="M218.18,341.111h-99.086c-1.137,0-2.059-0.922-2.059-2.059l0,0
				c0-1.137,0.922-2.059,2.059-2.059h99.086c1.137,0,2.059,0.922,2.059,2.059l0,0C220.239,340.189,219.317,341.111,218.18,341.111z"
				/>
			<path id="XMLID_77_" style="fill:#FFFFFF;" d="M218.18,349.453h-99.086c-1.137,0-2.059-0.922-2.059-2.059l0,0
				c0-1.137,0.922-2.059,2.059-2.059h99.086c1.137,0,2.059,0.922,2.059,2.059l0,0C220.239,348.531,219.317,349.453,218.18,349.453z"
				/>
			<path id="XMLID_45_" style="fill:#FFFFFF;" d="M218.18,366.138h-99.086c-1.137,0-2.059-0.922-2.059-2.059l0,0
				c0-1.137,0.922-2.059,2.059-2.059h99.086c1.137,0,2.059,0.922,2.059,2.059l0,0C220.239,365.216,219.317,366.138,218.18,366.138z"
				/>
			<path id="XMLID_42_" style="fill:#FFFFFF;" d="M189.257,374.48h-70.163c-1.137,0-2.059-0.922-2.059-2.059l0,0
				c0-1.137,0.922-2.059,2.059-2.059h70.163c1.137,0,2.059,0.922,2.059,2.059l0,0C191.316,373.558,190.395,374.48,189.257,374.48z"
				/>
		</g>
		<path id="XMLID_31_" style="fill:#F1C40F;" d="M187.748,385.839l15.387,11.044c1.427,1.025,3.415,0.004,3.415-1.753v-9.291
			H187.748z"/>
	</g>
	<g id="XMLID_43_">
		<path id="XMLID_94_" style="fill:#F1C40F;" d="M42.699,273.313h183.556c5.527,0,10.007-4.48,10.007-10.007v-59.287
			c0-5.527-4.48-10.007-10.007-10.007H42.699c-5.527,0-10.007,4.48-10.007,10.007v59.287
			C32.692,268.832,37.172,273.313,42.699,273.313z"/>
		<path id="XMLID_91_" style="fill:#E74C3C;" d="M164.372,194.012h61.883c5.527,0,10.007,4.48,10.007,10.007v59.287
			c0,5.527-4.48,10.007-10.007,10.007h-61.883V194.012z"/>
		<g id="XMLID_75_">
			<path id="XMLID_88_" style="fill:#E74C3C;" d="M54.311,206.087l1.182,2.395c0.076,0.154,0.222,0.26,0.392,0.285l2.643,0.384
				c0.427,0.062,0.597,0.586,0.288,0.887l-1.913,1.865c-0.123,0.119-0.179,0.292-0.15,0.46l0.451,2.633
				c0.073,0.425-0.373,0.749-0.755,0.548l-2.364-1.243c-0.152-0.08-0.333-0.08-0.484,0l-2.364,1.243
				c-0.382,0.201-0.828-0.123-0.755-0.548l0.451-2.633c0.029-0.169-0.027-0.341-0.15-0.46l-1.913-1.865
				c-0.309-0.301-0.138-0.825,0.288-0.887l2.643-0.384c0.169-0.025,0.316-0.131,0.392-0.285l1.182-2.395
				C53.569,205.7,54.12,205.7,54.311,206.087z"/>
			<path id="XMLID_85_" style="fill:#E74C3C;" d="M68.601,206.087l1.182,2.395c0.076,0.154,0.222,0.26,0.392,0.285l2.643,0.384
				c0.427,0.062,0.597,0.586,0.288,0.887l-1.913,1.865c-0.123,0.119-0.178,0.292-0.15,0.46l0.451,2.633
				c0.073,0.425-0.373,0.749-0.755,0.548l-2.364-1.243c-0.152-0.08-0.333-0.08-0.484,0l-2.364,1.243
				c-0.382,0.201-0.828-0.123-0.755-0.548l0.451-2.633c0.029-0.169-0.027-0.341-0.15-0.46l-1.913-1.865
				c-0.309-0.301-0.138-0.825,0.288-0.887l2.643-0.384c0.169-0.025,0.316-0.131,0.392-0.285l1.182-2.395
				C67.858,205.7,68.41,205.7,68.601,206.087z"/>
			<path id="XMLID_82_" style="fill:#FFFFFF;" d="M82.89,206.087l1.182,2.395c0.076,0.154,0.222,0.26,0.392,0.285l2.643,0.384
				c0.427,0.062,0.597,0.586,0.288,0.887l-1.913,1.865c-0.123,0.119-0.179,0.292-0.15,0.46l0.451,2.633
				c0.073,0.425-0.373,0.749-0.755,0.548l-2.364-1.243c-0.152-0.08-0.333-0.08-0.484,0l-2.364,1.243
				c-0.382,0.201-0.828-0.123-0.755-0.548l0.451-2.633c0.029-0.169-0.027-0.341-0.15-0.46l-1.913-1.865
				c-0.309-0.301-0.138-0.825,0.288-0.887l2.643-0.384c0.169-0.025,0.316-0.131,0.392-0.285l1.182-2.395
				C82.148,205.7,82.7,205.7,82.89,206.087z"/>
			<path id="XMLID_79_" style="fill:#FFFFFF;" d="M97.18,206.087l1.182,2.395c0.076,0.154,0.222,0.26,0.392,0.285l2.643,0.384
				c0.427,0.062,0.597,0.586,0.288,0.887l-1.913,1.865c-0.123,0.119-0.178,0.292-0.15,0.46l0.451,2.633
				c0.073,0.425-0.373,0.749-0.755,0.548l-2.364-1.243c-0.152-0.08-0.333-0.08-0.484,0l-2.364,1.243
				c-0.382,0.201-0.828-0.123-0.755-0.548l0.451-2.633c0.029-0.169-0.027-0.341-0.15-0.46l-1.913-1.865
				c-0.309-0.301-0.138-0.825,0.288-0.887l2.643-0.384c0.169-0.025,0.316-0.131,0.392-0.285l1.182-2.395
				C96.438,205.7,96.989,205.7,97.18,206.087z"/>
			<path id="XMLID_76_" style="fill:#FFFFFF;" d="M111.47,206.087l1.182,2.395c0.076,0.154,0.222,0.26,0.392,0.285l2.643,0.384
				c0.427,0.062,0.597,0.586,0.288,0.887l-1.913,1.865c-0.123,0.119-0.179,0.292-0.15,0.46l0.451,2.633
				c0.073,0.425-0.373,0.749-0.755,0.548l-2.364-1.243c-0.152-0.08-0.333-0.08-0.484,0l-2.364,1.243
				c-0.382,0.201-0.828-0.123-0.755-0.548l0.451-2.633c0.029-0.169-0.027-0.341-0.15-0.46l-1.913-1.865
				c-0.309-0.301-0.138-0.825,0.288-0.887l2.643-0.384c0.169-0.025,0.316-0.131,0.392-0.285l1.182-2.395
				C110.728,205.7,111.279,205.7,111.47,206.087z"/>
		</g>
		<g id="XMLID_55_">
			<g id="XMLID_59_">
				
					<ellipse id="XMLID_74_" transform="matrix(0.9225 -0.386 0.386 0.9225 -69.1204 94.3055)" style="fill:#FFFFFF;" cx="200.317" cy="219.304" rx="13.933" ry="13.933"/>
				<g id="XMLID_61_">
					<g id="XMLID_167_">
						<path id="XMLID_168_" style="fill:#34495E;" d="M197.778,220.658c0.245,0,0.564,0.066,0.959,0.197
							c0.264,0.075,0.48,0.132,0.649,0.169c0.282,0.056,0.592,0.085,0.931,0.085c0.339,0,0.649-0.028,0.931-0.085
							c0.169-0.037,0.386-0.094,0.649-0.169c0.395-0.131,0.715-0.197,0.959-0.197c0.677,0,1.307,0.169,1.89,0.508
							c0.583,0.339,1.044,0.8,1.382,1.382c0.339,0.583,0.508,1.213,0.508,1.89v0.733c0,0.376-0.131,0.696-0.395,0.959
							c-0.263,0.263-0.583,0.395-0.959,0.395h-9.93c-0.376,0-0.696-0.132-0.959-0.395c-0.263-0.264-0.395-0.583-0.395-0.959v-0.733
							c0-0.677,0.169-1.307,0.508-1.89c0.339-0.583,0.8-1.044,1.382-1.382C196.471,220.827,197.101,220.658,197.778,220.658z
							 M200.317,220.206c-0.734,0-1.411-0.183-2.031-0.55c-0.621-0.367-1.114-0.86-1.481-1.481c-0.367-0.621-0.55-1.298-0.55-2.031
							c0-0.733,0.183-1.41,0.55-2.031c0.367-0.621,0.86-1.114,1.481-1.481c0.621-0.367,1.298-0.55,2.031-0.55
							c0.733,0,1.41,0.183,2.031,0.55c0.621,0.367,1.114,0.86,1.481,1.481c0.367,0.621,0.55,1.298,0.55,2.031
							c0,0.734-0.183,1.411-0.55,2.031c-0.367,0.621-0.86,1.114-1.481,1.481C201.727,220.023,201.05,220.206,200.317,220.206z"/>
					</g>
				</g>
			</g>
			<path id="XMLID_58_" style="fill:#FFFFFF;" d="M173.224,239.927h54.186c1.137,0,2.059,0.922,2.059,2.059l0,0
				c0,1.137-0.922,2.059-2.059,2.059h-54.186c-1.137,0-2.059-0.922-2.059-2.059l0,0
				C171.165,240.848,172.087,239.927,173.224,239.927z"/>
			<path id="XMLID_57_" style="fill:#FFFFFF;" d="M173.224,248.882h54.186c1.137,0,2.059,0.922,2.059,2.058l0,0
				c0,1.137-0.922,2.059-2.059,2.059h-54.186c-1.137,0-2.059-0.922-2.059-2.059l0,0
				C171.165,249.803,172.087,248.882,173.224,248.882z"/>
			<path id="XMLID_56_" style="fill:#FFFFFF;" d="M173.224,257.836h54.186c1.137,0,2.059,0.922,2.059,2.059l0,0
				c0,1.137-0.922,2.059-2.059,2.059h-54.186c-1.137,0-2.059-0.922-2.059-2.059l0,0
				C171.165,258.758,172.087,257.836,173.224,257.836z"/>
		</g>
		<g id="XMLID_47_">
			<path id="XMLID_54_" style="fill:#FFFFFF;" d="M149.859,245.269H50.773c-1.137,0-2.058-0.922-2.058-2.059l0,0
				c0-1.137,0.922-2.059,2.058-2.059h99.086c1.137,0,2.059,0.922,2.059,2.059l0,0C151.918,244.347,150.996,245.269,149.859,245.269z
				"/>
			<path id="XMLID_53_" style="fill:#FFFFFF;" d="M149.859,228.584H50.773c-1.137,0-2.058-0.922-2.058-2.059l0,0
				c0-1.137,0.922-2.059,2.058-2.059h99.086c1.137,0,2.059,0.922,2.059,2.059l0,0C151.918,227.663,150.996,228.584,149.859,228.584z
				"/>
			<path id="XMLID_52_" style="fill:#FFFFFF;" d="M149.859,236.926H50.773c-1.137,0-2.058-0.922-2.058-2.059l0,0
				c0-1.137,0.922-2.059,2.058-2.059h99.086c1.137,0,2.059,0.922,2.059,2.059l0,0C151.918,236.005,150.996,236.926,149.859,236.926z
				"/>
			<path id="XMLID_51_" style="fill:#FFFFFF;" d="M149.859,253.611H50.773c-1.137,0-2.058-0.922-2.058-2.059l0,0
				c0-1.137,0.922-2.059,2.058-2.059h99.086c1.137,0,2.059,0.922,2.059,2.059l0,0C151.918,252.689,150.996,253.611,149.859,253.611z
				"/>
			<path id="XMLID_49_" style="fill:#FFFFFF;" d="M120.936,261.953H50.773c-1.137,0-2.058-0.922-2.058-2.059l0,0
				c0-1.137,0.922-2.059,2.058-2.059h70.163c1.137,0,2.059,0.922,2.059,2.059l0,0C122.995,261.032,122.073,261.953,120.936,261.953z
				"/>
		</g>
		<path id="XMLID_44_" style="fill:#F1C40F;" d="M81.206,273.313l-15.386,11.044c-1.427,1.024-3.415,0.004-3.415-1.753v-9.291
			H81.206z"/>
	</g>
	<g id="XMLID_240_">
		<path id="XMLID_284_" style="fill:#34495E;" d="M457.301,165.009H273.745c-5.527,0-10.007-4.48-10.007-10.007V95.715
			c0-5.527,4.48-10.007,10.007-10.007h183.556c5.527,0,10.007,4.48,10.007,10.007v59.287
			C467.308,160.529,462.828,165.009,457.301,165.009z"/>
		<path id="XMLID_281_" style="fill:#3498DB;" d="M335.628,85.709h-61.883c-5.527,0-10.007,4.48-10.007,10.007v59.287
			c0,5.527,4.48,10.007,10.007,10.007h61.883V85.709z"/>
		<g id="XMLID_265_">
			<path id="XMLID_278_" style="fill:#F1C40F;" d="M353.678,97.783l1.182,2.395c0.076,0.153,0.222,0.26,0.392,0.285l2.643,0.384
				c0.427,0.062,0.597,0.586,0.288,0.887l-1.913,1.865c-0.123,0.119-0.178,0.292-0.15,0.46l0.452,2.633
				c0.073,0.425-0.373,0.749-0.755,0.548l-2.364-1.243c-0.152-0.08-0.333-0.08-0.484,0l-2.364,1.243
				c-0.382,0.201-0.828-0.123-0.755-0.548l0.452-2.633c0.029-0.169-0.027-0.341-0.15-0.46l-1.913-1.865
				c-0.309-0.301-0.138-0.825,0.288-0.887l2.643-0.384c0.169-0.025,0.316-0.131,0.392-0.285l1.182-2.395
				C352.936,97.397,353.488,97.397,353.678,97.783z"/>
			<path id="XMLID_275_" style="fill:#F1C40F;" d="M367.968,97.783l1.182,2.395c0.076,0.153,0.222,0.26,0.392,0.285l2.643,0.384
				c0.427,0.062,0.597,0.586,0.288,0.887l-1.913,1.865c-0.123,0.119-0.178,0.292-0.15,0.46l0.452,2.633
				c0.073,0.425-0.373,0.749-0.755,0.548l-2.364-1.243c-0.152-0.08-0.333-0.08-0.484,0l-2.364,1.243
				c-0.382,0.201-0.828-0.123-0.755-0.548l0.452-2.633c0.029-0.169-0.027-0.341-0.15-0.46l-1.913-1.865
				c-0.309-0.301-0.138-0.825,0.288-0.887l2.643-0.384c0.169-0.025,0.316-0.131,0.392-0.285l1.182-2.395
				C367.226,97.397,367.777,97.397,367.968,97.783z"/>
			<path id="XMLID_272_" style="fill:#F1C40F;" d="M382.258,97.783l1.182,2.395c0.076,0.153,0.222,0.26,0.392,0.285l2.643,0.384
				c0.427,0.062,0.597,0.586,0.288,0.887l-1.913,1.865c-0.123,0.119-0.178,0.292-0.15,0.46l0.452,2.633
				c0.073,0.425-0.373,0.749-0.755,0.548l-2.364-1.243c-0.151-0.08-0.333-0.08-0.484,0l-2.364,1.243
				c-0.382,0.201-0.828-0.123-0.755-0.548l0.452-2.633c0.029-0.169-0.027-0.341-0.15-0.46l-1.913-1.865
				c-0.309-0.301-0.138-0.825,0.288-0.887l2.643-0.384c0.169-0.025,0.316-0.131,0.392-0.285l1.182-2.395
				C381.516,97.397,382.067,97.397,382.258,97.783z"/>
			<path id="XMLID_269_" style="fill:#FFFFFF;" d="M396.548,97.783l1.182,2.395c0.076,0.153,0.222,0.26,0.392,0.285l2.643,0.384
				c0.427,0.062,0.597,0.586,0.288,0.887l-1.913,1.865c-0.123,0.119-0.178,0.292-0.15,0.46l0.452,2.633
				c0.073,0.425-0.373,0.749-0.755,0.548l-2.364-1.243c-0.151-0.08-0.333-0.08-0.484,0l-2.364,1.243
				c-0.382,0.201-0.828-0.123-0.755-0.548l0.451-2.633c0.029-0.169-0.027-0.341-0.15-0.46l-1.913-1.865
				c-0.309-0.301-0.138-0.825,0.288-0.887l2.643-0.384c0.169-0.025,0.316-0.131,0.392-0.285l1.182-2.395
				C395.805,97.397,396.357,97.397,396.548,97.783z"/>
			<path id="XMLID_266_" style="fill:#FFFFFF;" d="M410.837,97.783l1.182,2.395c0.076,0.153,0.222,0.26,0.392,0.285l2.643,0.384
				c0.427,0.062,0.597,0.586,0.288,0.887l-1.913,1.865c-0.123,0.119-0.178,0.292-0.15,0.46l0.452,2.633
				c0.073,0.425-0.373,0.749-0.755,0.548l-2.364-1.243c-0.151-0.08-0.333-0.08-0.484,0l-2.364,1.243
				c-0.382,0.201-0.828-0.123-0.755-0.548l0.451-2.633c0.029-0.169-0.027-0.341-0.15-0.46l-1.913-1.865
				c-0.309-0.301-0.138-0.825,0.288-0.887l2.643-0.384c0.169-0.025,0.316-0.131,0.392-0.285l1.182-2.395
				C410.095,97.397,410.646,97.397,410.837,97.783z"/>
		</g>
		<g id="XMLID_250_">
			<g id="XMLID_254_">
				
					<ellipse id="XMLID_264_" transform="matrix(0.987 -0.1609 0.1609 0.987 -13.954 49.659)" style="fill:#FFFFFF;" cx="299.683" cy="111" rx="13.933" ry="13.933"/>
				<g id="XMLID_255_">
					<g id="XMLID_161_">
						<path id="XMLID_163_" style="fill:#34495E;" d="M304.112,112.862c0.583,0.339,1.044,0.8,1.382,1.382
							c0.339,0.583,0.508,1.213,0.508,1.89v0.733c0,0.376-0.132,0.696-0.395,0.959c-0.264,0.263-0.583,0.395-0.959,0.395h-9.93
							c-0.376,0-0.696-0.132-0.959-0.395c-0.264-0.264-0.395-0.583-0.395-0.959v-0.733c0-0.677,0.169-1.307,0.508-1.89
							c0.339-0.583,0.799-1.044,1.382-1.382c0.583-0.339,1.213-0.508,1.89-0.508c0.244,0,0.564,0.066,0.959,0.198
							c0.263,0.075,0.479,0.132,0.649,0.169c0.282,0.056,0.592,0.085,0.931,0.085c0.339,0,0.649-0.028,0.931-0.085
							c0.169-0.037,0.385-0.094,0.649-0.169c0.395-0.131,0.714-0.198,0.959-0.198C302.899,112.354,303.529,112.524,304.112,112.862z
							 M297.652,111.353c-0.621-0.367-1.114-0.86-1.481-1.481c-0.367-0.621-0.55-1.298-0.55-2.031c0-0.733,0.183-1.41,0.55-2.031
							c0.367-0.621,0.86-1.114,1.481-1.481c0.621-0.367,1.298-0.55,2.031-0.55c0.733,0,1.411,0.183,2.031,0.55
							c0.621,0.367,1.114,0.86,1.481,1.481c0.367,0.621,0.55,1.298,0.55,2.031c0,0.734-0.183,1.41-0.55,2.031
							c-0.367,0.621-0.86,1.114-1.481,1.481c-0.621,0.367-1.298,0.55-2.031,0.55C298.95,111.903,298.273,111.72,297.652,111.353z"/>
					</g>
				</g>
			</g>
			<path id="XMLID_253_" style="fill:#FFFFFF;" d="M326.776,131.623H272.59c-1.137,0-2.059,0.922-2.059,2.058v0
				c0,1.137,0.922,2.059,2.059,2.059h54.186c1.137,0,2.059-0.922,2.059-2.059v0C328.835,132.545,327.913,131.623,326.776,131.623z"
				/>
			<path id="XMLID_252_" style="fill:#FFFFFF;" d="M326.776,140.578H272.59c-1.137,0-2.059,0.922-2.059,2.059l0,0
				c0,1.137,0.922,2.059,2.059,2.059h54.186c1.137,0,2.059-0.922,2.059-2.059l0,0C328.835,141.5,327.913,140.578,326.776,140.578z"
				/>
			<path id="XMLID_251_" style="fill:#FFFFFF;" d="M326.776,149.533H272.59c-1.137,0-2.059,0.922-2.059,2.059l0,0
				c0,1.137,0.922,2.059,2.059,2.059h54.186c1.137,0,2.059-0.922,2.059-2.059l0,0C328.835,150.454,327.913,149.533,326.776,149.533z
				"/>
		</g>
		<g id="XMLID_244_">
			<path id="XMLID_249_" style="fill:#FFFFFF;" d="M449.227,136.965h-99.086c-1.137,0-2.059-0.922-2.059-2.059l0,0
				c0-1.137,0.922-2.059,2.059-2.059h99.086c1.137,0,2.059,0.922,2.059,2.059l0,0C451.285,136.044,450.364,136.965,449.227,136.965z
				"/>
			<path id="XMLID_248_" style="fill:#FFFFFF;" d="M449.227,120.281h-99.086c-1.137,0-2.059-0.922-2.059-2.059l0,0
				c0-1.137,0.922-2.059,2.059-2.059h99.086c1.137,0,2.059,0.922,2.059,2.059l0,0C451.285,119.359,450.364,120.281,449.227,120.281z
				"/>
			<path id="XMLID_247_" style="fill:#FFFFFF;" d="M449.227,128.623h-99.086c-1.137,0-2.059-0.922-2.059-2.059l0,0
				c0-1.137,0.922-2.059,2.059-2.059h99.086c1.137,0,2.059,0.922,2.059,2.059l0,0C451.285,127.701,450.364,128.623,449.227,128.623z
				"/>
			<path id="XMLID_246_" style="fill:#FFFFFF;" d="M449.227,145.308h-99.086c-1.137,0-2.059-0.922-2.059-2.059l0,0
				c0-1.137,0.922-2.059,2.059-2.059h99.086c1.137,0,2.059,0.922,2.059,2.059l0,0C451.285,144.386,450.364,145.308,449.227,145.308z
				"/>
			<path id="XMLID_245_" style="fill:#FFFFFF;" d="M420.304,153.65h-70.163c-1.137,0-2.059-0.922-2.059-2.059l0,0
				c0-1.137,0.922-2.059,2.059-2.059h70.163c1.137,0,2.059,0.922,2.059,2.059l0,0C422.363,152.728,421.441,153.65,420.304,153.65z"
				/>
		</g>
		<path id="XMLID_241_" style="fill:#34495E;" d="M418.794,165.009l15.386,11.044c1.427,1.024,3.415,0.004,3.415-1.753v-9.291
			H418.794z"/>
	</g>
	<g id="XMLID_193_">
		<path id="XMLID_237_" style="fill:#34495E;" d="M457.301,385.839H273.745c-5.527,0-10.007-4.48-10.007-10.007v-59.287
			c0-5.527,4.48-10.007,10.007-10.007h183.556c5.527,0,10.007,4.48,10.007,10.007v59.287
			C467.308,381.359,462.828,385.839,457.301,385.839z"/>
		<path id="XMLID_234_" style="fill:#3498DB;" d="M335.628,306.539h-61.883c-5.527,0-10.007,4.48-10.007,10.007v59.287
			c0,5.527,4.48,10.007,10.007,10.007h61.883V306.539z"/>
		<g id="XMLID_218_">
			<path id="XMLID_231_" style="fill:#F1C40F;" d="M353.678,318.613l1.182,2.395c0.076,0.154,0.222,0.26,0.392,0.285l2.643,0.384
				c0.427,0.062,0.597,0.586,0.288,0.887l-1.913,1.865c-0.123,0.12-0.178,0.292-0.15,0.46l0.452,2.633
				c0.073,0.425-0.373,0.749-0.755,0.548l-2.364-1.243c-0.152-0.08-0.333-0.08-0.484,0l-2.364,1.243
				c-0.382,0.201-0.828-0.124-0.755-0.548l0.452-2.633c0.029-0.169-0.027-0.341-0.15-0.46l-1.913-1.865
				c-0.309-0.301-0.138-0.825,0.288-0.887l2.643-0.384c0.169-0.025,0.316-0.131,0.392-0.285l1.182-2.395
				C352.936,318.227,353.488,318.227,353.678,318.613z"/>
			<path id="XMLID_228_" style="fill:#F1C40F;" d="M367.968,318.613l1.182,2.395c0.076,0.154,0.222,0.26,0.392,0.285l2.643,0.384
				c0.427,0.062,0.597,0.586,0.288,0.887l-1.913,1.865c-0.123,0.12-0.178,0.292-0.15,0.46l0.452,2.633
				c0.073,0.425-0.373,0.749-0.755,0.548l-2.364-1.243c-0.152-0.08-0.333-0.08-0.484,0l-2.364,1.243
				c-0.382,0.201-0.828-0.124-0.755-0.548l0.452-2.633c0.029-0.169-0.027-0.341-0.15-0.46l-1.913-1.865
				c-0.309-0.301-0.138-0.825,0.288-0.887l2.643-0.384c0.169-0.025,0.316-0.131,0.392-0.285l1.182-2.395
				C367.226,318.227,367.777,318.227,367.968,318.613z"/>
			<path id="XMLID_225_" style="fill:#F1C40F;" d="M382.258,318.613l1.182,2.395c0.076,0.154,0.222,0.26,0.392,0.285l2.643,0.384
				c0.427,0.062,0.597,0.586,0.288,0.887l-1.913,1.865c-0.123,0.12-0.178,0.292-0.15,0.46l0.452,2.633
				c0.073,0.425-0.373,0.749-0.755,0.548l-2.364-1.243c-0.151-0.08-0.333-0.08-0.484,0l-2.364,1.243
				c-0.382,0.201-0.828-0.124-0.755-0.548l0.452-2.633c0.029-0.169-0.027-0.341-0.15-0.46l-1.913-1.865
				c-0.309-0.301-0.138-0.825,0.288-0.887l2.643-0.384c0.169-0.025,0.316-0.131,0.392-0.285l1.182-2.395
				C381.516,318.227,382.067,318.227,382.258,318.613z"/>
			<path id="XMLID_222_" style="fill:#FFFFFF;" d="M396.548,318.613l1.182,2.395c0.076,0.154,0.222,0.26,0.392,0.285l2.643,0.384
				c0.427,0.062,0.597,0.586,0.288,0.887l-1.913,1.865c-0.123,0.12-0.178,0.292-0.15,0.46l0.452,2.633
				c0.073,0.425-0.373,0.749-0.755,0.548l-2.364-1.243c-0.151-0.08-0.333-0.08-0.484,0l-2.364,1.243
				c-0.382,0.201-0.828-0.124-0.755-0.548l0.451-2.633c0.029-0.169-0.027-0.341-0.15-0.46l-1.913-1.865
				c-0.309-0.301-0.138-0.825,0.288-0.887l2.643-0.384c0.169-0.025,0.316-0.131,0.392-0.285l1.182-2.395
				C395.805,318.227,396.357,318.227,396.548,318.613z"/>
			<path id="XMLID_219_" style="fill:#FFFFFF;" d="M410.837,318.613l1.182,2.395c0.076,0.154,0.222,0.26,0.392,0.285l2.643,0.384
				c0.427,0.062,0.597,0.586,0.288,0.887l-1.913,1.865c-0.123,0.12-0.178,0.292-0.15,0.46l0.452,2.633
				c0.073,0.425-0.373,0.749-0.755,0.548l-2.364-1.243c-0.151-0.08-0.333-0.08-0.484,0l-2.364,1.243
				c-0.382,0.201-0.828-0.124-0.755-0.548l0.451-2.633c0.029-0.169-0.027-0.341-0.15-0.46l-1.913-1.865
				c-0.309-0.301-0.138-0.825,0.288-0.887l2.643-0.384c0.169-0.025,0.316-0.131,0.392-0.285l1.182-2.395
				C410.095,318.227,410.646,318.227,410.837,318.613z"/>
		</g>
		<g id="XMLID_203_">
			<g id="XMLID_207_">
				<circle id="XMLID_217_" style="fill:#FFFFFF;" cx="299.683" cy="331.83" r="13.933"/>
				<g id="XMLID_208_">
					<g id="XMLID_144_">
						<path id="XMLID_145_" style="fill:#34495E;" d="M304.112,333.692c0.583,0.339,1.044,0.8,1.382,1.382
							c0.339,0.583,0.508,1.213,0.508,1.89v0.734c0,0.376-0.132,0.695-0.395,0.959c-0.264,0.263-0.583,0.395-0.959,0.395h-9.93
							c-0.376,0-0.696-0.132-0.959-0.395c-0.264-0.264-0.395-0.583-0.395-0.959v-0.734c0-0.677,0.169-1.307,0.508-1.89
							c0.339-0.583,0.799-1.044,1.382-1.382c0.583-0.339,1.213-0.508,1.89-0.508c0.244,0,0.564,0.066,0.959,0.197
							c0.263,0.075,0.479,0.132,0.649,0.169c0.282,0.056,0.592,0.085,0.931,0.085c0.339,0,0.649-0.028,0.931-0.085
							c0.169-0.037,0.385-0.094,0.649-0.169c0.395-0.131,0.714-0.197,0.959-0.197C302.899,333.185,303.529,333.354,304.112,333.692z
							 M297.652,332.183c-0.621-0.367-1.114-0.86-1.481-1.481c-0.367-0.621-0.55-1.298-0.55-2.031c0-0.733,0.183-1.41,0.55-2.031
							s0.86-1.114,1.481-1.481c0.621-0.367,1.298-0.55,2.031-0.55c0.733,0,1.411,0.183,2.031,0.55
							c0.621,0.367,1.114,0.861,1.481,1.481c0.367,0.621,0.55,1.298,0.55,2.031c0,0.733-0.183,1.41-0.55,2.031
							c-0.367,0.621-0.86,1.114-1.481,1.481c-0.621,0.367-1.298,0.55-2.031,0.55C298.95,332.733,298.273,332.55,297.652,332.183z"/>
					</g>
				</g>
			</g>
			<path id="XMLID_206_" style="fill:#FFFFFF;" d="M326.776,352.453H272.59c-1.137,0-2.059,0.922-2.059,2.059l0,0
				c0,1.137,0.922,2.059,2.059,2.059h54.186c1.137,0,2.059-0.922,2.059-2.059l0,0C328.835,353.375,327.913,352.453,326.776,352.453z
				"/>
			<path id="XMLID_205_" style="fill:#FFFFFF;" d="M326.776,361.408H272.59c-1.137,0-2.059,0.922-2.059,2.059l0,0
				c0,1.137,0.922,2.059,2.059,2.059h54.186c1.137,0,2.059-0.922,2.059-2.059l0,0C328.835,362.33,327.913,361.408,326.776,361.408z"
				/>
			<path id="XMLID_204_" style="fill:#FFFFFF;" d="M326.776,370.363H272.59c-1.137,0-2.059,0.922-2.059,2.059l0,0
				c0,1.137,0.922,2.059,2.059,2.059h54.186c1.137,0,2.059-0.922,2.059-2.059l0,0C328.835,371.285,327.913,370.363,326.776,370.363z
				"/>
		</g>
		<g id="XMLID_197_">
			<path id="XMLID_202_" style="fill:#FFFFFF;" d="M449.227,357.796h-99.086c-1.137,0-2.059-0.922-2.059-2.059l0,0
				c0-1.137,0.922-2.059,2.059-2.059h99.086c1.137,0,2.059,0.922,2.059,2.059l0,0C451.285,356.874,450.364,357.796,449.227,357.796z
				"/>
			<path id="XMLID_201_" style="fill:#FFFFFF;" d="M449.227,341.111h-99.086c-1.137,0-2.059-0.922-2.059-2.059l0,0
				c0-1.137,0.922-2.059,2.059-2.059h99.086c1.137,0,2.059,0.922,2.059,2.059l0,0C451.285,340.189,450.364,341.111,449.227,341.111z
				"/>
			<path id="XMLID_200_" style="fill:#FFFFFF;" d="M449.227,349.453h-99.086c-1.137,0-2.059-0.922-2.059-2.059l0,0
				c0-1.137,0.922-2.059,2.059-2.059h99.086c1.137,0,2.059,0.922,2.059,2.059l0,0C451.285,348.531,450.364,349.453,449.227,349.453z
				"/>
			<path id="XMLID_199_" style="fill:#FFFFFF;" d="M449.227,366.138h-99.086c-1.137,0-2.059-0.922-2.059-2.059l0,0
				c0-1.137,0.922-2.059,2.059-2.059h99.086c1.137,0,2.059,0.922,2.059,2.059l0,0C451.285,365.216,450.364,366.138,449.227,366.138z
				"/>
			<path id="XMLID_198_" style="fill:#FFFFFF;" d="M420.304,374.48h-70.163c-1.137,0-2.059-0.922-2.059-2.059l0,0
				c0-1.137,0.922-2.059,2.059-2.059h70.163c1.137,0,2.059,0.922,2.059,2.059l0,0C422.363,373.558,421.441,374.48,420.304,374.48z"
				/>
		</g>
		<path id="XMLID_194_" style="fill:#34495E;" d="M418.794,385.839l15.386,11.044c1.427,1.025,3.415,0.004,3.415-1.753v-9.291
			H418.794z"/>
	</g>
	<g id="XMLID_20_">
		<path id="XMLID_190_" style="fill:#34495E;" d="M273.745,273.313h183.556c5.527,0,10.007-4.48,10.007-10.007v-59.287
			c0-5.527-4.48-10.007-10.007-10.007H273.745c-5.527,0-10.007,4.48-10.007,10.007v59.287
			C263.738,268.832,268.219,273.313,273.745,273.313z"/>
		<path id="XMLID_187_" style="fill:#3498DB;" d="M395.418,194.012h61.883c5.527,0,10.007,4.48,10.007,10.007v59.287
			c0,5.527-4.48,10.007-10.007,10.007h-61.883V194.012z"/>
		<g id="XMLID_159_">
			<path id="XMLID_184_" style="fill:#F1C40F;" d="M285.357,206.087l1.182,2.395c0.076,0.154,0.222,0.26,0.392,0.285l2.643,0.384
				c0.427,0.062,0.597,0.586,0.288,0.887l-1.913,1.865c-0.123,0.119-0.179,0.292-0.15,0.46l0.452,2.633
				c0.073,0.425-0.373,0.749-0.755,0.548l-2.364-1.243c-0.152-0.08-0.333-0.08-0.484,0l-2.364,1.243
				c-0.382,0.201-0.828-0.123-0.755-0.548l0.452-2.633c0.029-0.169-0.027-0.341-0.15-0.46l-1.913-1.865
				c-0.309-0.301-0.138-0.825,0.288-0.887l2.643-0.384c0.169-0.025,0.316-0.131,0.392-0.285l1.182-2.395
				C284.615,205.7,285.167,205.7,285.357,206.087z"/>
			<path id="XMLID_181_" style="fill:#F1C40F;" d="M299.647,206.087l1.182,2.395c0.076,0.154,0.222,0.26,0.392,0.285l2.643,0.384
				c0.427,0.062,0.597,0.586,0.288,0.887l-1.913,1.865c-0.123,0.119-0.178,0.292-0.15,0.46l0.452,2.633
				c0.073,0.425-0.373,0.749-0.755,0.548l-2.364-1.243c-0.152-0.08-0.333-0.08-0.484,0l-2.364,1.243
				c-0.382,0.201-0.828-0.123-0.755-0.548l0.452-2.633c0.029-0.169-0.027-0.341-0.15-0.46l-1.913-1.865
				c-0.309-0.301-0.138-0.825,0.288-0.887l2.643-0.384c0.169-0.025,0.316-0.131,0.392-0.285l1.182-2.395
				C298.905,205.7,299.456,205.7,299.647,206.087z"/>
			<path id="XMLID_178_" style="fill:#F1C40F;" d="M313.937,206.087l1.182,2.395c0.076,0.154,0.222,0.26,0.392,0.285l2.643,0.384
				c0.427,0.062,0.597,0.586,0.288,0.887l-1.913,1.865c-0.123,0.119-0.178,0.292-0.15,0.46l0.452,2.633
				c0.073,0.425-0.373,0.749-0.755,0.548l-2.364-1.243c-0.151-0.08-0.333-0.08-0.484,0l-2.364,1.243
				c-0.382,0.201-0.828-0.123-0.755-0.548l0.452-2.633c0.029-0.169-0.027-0.341-0.15-0.46l-1.913-1.865
				c-0.309-0.301-0.138-0.825,0.288-0.887l2.643-0.384c0.169-0.025,0.316-0.131,0.392-0.285l1.182-2.395
				C313.195,205.7,313.746,205.7,313.937,206.087z"/>
			<path id="XMLID_175_" style="fill:#F1C40F;" d="M328.226,206.087l1.182,2.395c0.076,0.154,0.222,0.26,0.392,0.285l2.643,0.384
				c0.427,0.062,0.597,0.586,0.288,0.887l-1.913,1.865c-0.123,0.119-0.178,0.292-0.15,0.46l0.452,2.633
				c0.073,0.425-0.373,0.749-0.755,0.548l-2.364-1.243c-0.152-0.08-0.333-0.08-0.484,0l-2.364,1.243
				c-0.382,0.201-0.828-0.123-0.755-0.548l0.452-2.633c0.029-0.169-0.027-0.341-0.15-0.46l-1.913-1.865
				c-0.309-0.301-0.138-0.825,0.288-0.887l2.643-0.384c0.169-0.025,0.316-0.131,0.392-0.285l1.182-2.395
				C327.484,205.7,328.036,205.7,328.226,206.087z"/>
			<path id="XMLID_160_" style="fill:#FFFFFF;" d="M342.516,206.087l1.182,2.395c0.076,0.154,0.222,0.26,0.392,0.285l2.643,0.384
				c0.427,0.062,0.597,0.586,0.288,0.887l-1.913,1.865c-0.123,0.119-0.178,0.292-0.15,0.46l0.452,2.633
				c0.073,0.425-0.373,0.749-0.755,0.548l-2.364-1.243c-0.151-0.08-0.333-0.08-0.484,0l-2.364,1.243
				c-0.382,0.201-0.828-0.123-0.755-0.548l0.452-2.633c0.029-0.169-0.027-0.341-0.15-0.46l-1.913-1.865
				c-0.309-0.301-0.138-0.825,0.288-0.887l2.643-0.384c0.169-0.025,0.316-0.131,0.392-0.285l1.182-2.395
				C341.774,205.7,342.325,205.7,342.516,206.087z"/>
		</g>
		<g id="XMLID_137_">
			<g id="XMLID_143_">
				
					<ellipse id="XMLID_155_" transform="matrix(0.9225 -0.386 0.386 0.9225 -51.2184 183.4791)" style="fill:#FFFFFF;" cx="431.363" cy="219.304" rx="13.933" ry="13.933"/>
				<g id="XMLID_146_">
					<g id="XMLID_124_">
						<path id="XMLID_125_" style="fill:#34495E;" d="M428.824,220.658c0.245,0,0.564,0.066,0.959,0.197
							c0.264,0.075,0.48,0.132,0.649,0.169c0.282,0.056,0.592,0.085,0.931,0.085c0.339,0,0.649-0.028,0.931-0.085
							c0.169-0.037,0.386-0.094,0.649-0.169c0.395-0.131,0.715-0.197,0.959-0.197c0.677,0,1.307,0.169,1.89,0.508
							c0.583,0.339,1.044,0.8,1.382,1.382c0.339,0.583,0.508,1.213,0.508,1.89v0.733c0,0.376-0.131,0.696-0.395,0.959
							c-0.263,0.263-0.583,0.395-0.959,0.395h-9.93c-0.376,0-0.696-0.132-0.959-0.395c-0.263-0.264-0.395-0.583-0.395-0.959v-0.733
							c0-0.677,0.169-1.307,0.508-1.89c0.339-0.583,0.799-1.044,1.382-1.382C427.517,220.827,428.147,220.658,428.824,220.658z
							 M431.363,220.206c-0.734,0-1.411-0.183-2.031-0.55c-0.621-0.367-1.114-0.86-1.481-1.481c-0.367-0.621-0.55-1.298-0.55-2.031
							c0-0.733,0.183-1.41,0.55-2.031c0.367-0.621,0.86-1.114,1.481-1.481c0.621-0.367,1.298-0.55,2.031-0.55
							c0.733,0,1.41,0.183,2.031,0.55c0.621,0.367,1.114,0.86,1.481,1.481c0.367,0.621,0.55,1.298,0.55,2.031
							c0,0.734-0.183,1.411-0.55,2.031c-0.367,0.621-0.86,1.114-1.481,1.481C432.773,220.023,432.097,220.206,431.363,220.206z"/>
					</g>
				</g>
			</g>
			<path id="XMLID_142_" style="fill:#FFFFFF;" d="M404.27,239.927h54.186c1.137,0,2.059,0.922,2.059,2.059l0,0
				c0,1.137-0.922,2.059-2.059,2.059H404.27c-1.137,0-2.059-0.922-2.059-2.059l0,0C402.211,240.848,403.133,239.927,404.27,239.927z
				"/>
			<path id="XMLID_140_" style="fill:#FFFFFF;" d="M404.27,248.882h54.186c1.137,0,2.059,0.922,2.059,2.058l0,0
				c0,1.137-0.922,2.059-2.059,2.059H404.27c-1.137,0-2.059-0.922-2.059-2.059l0,0C402.211,249.803,403.133,248.882,404.27,248.882z
				"/>
			<path id="XMLID_139_" style="fill:#FFFFFF;" d="M404.27,257.836h54.186c1.137,0,2.059,0.922,2.059,2.059l0,0
				c0,1.137-0.922,2.059-2.059,2.059H404.27c-1.137,0-2.059-0.922-2.059-2.059l0,0C402.211,258.758,403.133,257.836,404.27,257.836z
				"/>
		</g>
		<g id="XMLID_28_">
			<path id="XMLID_136_" style="fill:#FFFFFF;" d="M380.905,245.269H281.82c-1.137,0-2.059-0.922-2.059-2.059l0,0
				c0-1.137,0.922-2.059,2.059-2.059h99.086c1.137,0,2.059,0.922,2.059,2.059l0,0C382.964,244.347,382.042,245.269,380.905,245.269z
				"/>
			<path id="XMLID_134_" style="fill:#FFFFFF;" d="M380.905,228.584H281.82c-1.137,0-2.059-0.922-2.059-2.059l0,0
				c0-1.137,0.922-2.059,2.059-2.059h99.086c1.137,0,2.059,0.922,2.059,2.059l0,0C382.964,227.663,382.042,228.584,380.905,228.584z
				"/>
			<path id="XMLID_65_" style="fill:#FFFFFF;" d="M380.905,236.926H281.82c-1.137,0-2.059-0.922-2.059-2.059l0,0
				c0-1.137,0.922-2.059,2.059-2.059h99.086c1.137,0,2.059,0.922,2.059,2.059l0,0C382.964,236.005,382.042,236.926,380.905,236.926z
				"/>
			<path id="XMLID_32_" style="fill:#FFFFFF;" d="M380.905,253.611H281.82c-1.137,0-2.059-0.922-2.059-2.059l0,0
				c0-1.137,0.922-2.059,2.059-2.059h99.086c1.137,0,2.059,0.922,2.059,2.059l0,0C382.964,252.689,382.042,253.611,380.905,253.611z
				"/>
			<path id="XMLID_29_" style="fill:#FFFFFF;" d="M351.983,261.953H281.82c-1.137,0-2.059-0.922-2.059-2.059l0,0
				c0-1.137,0.922-2.059,2.059-2.059h70.163c1.137,0,2.059,0.922,2.059,2.059l0,0C354.041,261.032,353.12,261.953,351.983,261.953z"
				/>
		</g>
		<path id="XMLID_25_" style="fill:#34495E;" d="M312.252,273.313l-15.387,11.044c-1.427,1.024-3.415,0.004-3.415-1.753v-9.291
			H312.252z"/>
	</g>
</g>
<g id="DESIGNED_BY_FREEPIK">
	<g id="XMLID_26_">
		<g id="XMLID_319_">
			<g id="XMLID_338_">
				<path id="XMLID_346_" style="fill:#1D262D;" d="M260.104,465.465c-0.432,0.443-0.803,0.931-1.108,1.453l-0.465-0.241
					c-0.067-0.298-0.349-0.503-0.659-0.466c-0.331,0.039-0.568,0.339-0.529,0.67s0.339,0.568,0.67,0.529
					c0.065-0.008,0.127-0.026,0.184-0.052l0.451,0.234c-0.251,0.554-0.433,1.139-0.539,1.744l0.746,0.132
					c0.23-1.306,0.85-2.507,1.792-3.473L260.104,465.465z"/>
				<path id="XMLID_345_" style="fill:#1D262D;" d="M265.592,463.163c-0.171,0-0.341,0.006-0.51,0.017l-0.074-0.626
					c0.188-0.149,0.296-0.389,0.266-0.645c-0.046-0.393-0.402-0.674-0.795-0.628s-0.674,0.402-0.628,0.795
					c0.03,0.254,0.189,0.461,0.405,0.564l0.073,0.624c-0.714,0.116-1.403,0.332-2.06,0.646l0.327,0.684
					c0.934-0.447,1.942-0.673,2.995-0.673c0.496,0,0.993,0.053,1.475,0.158l0.161-0.741
					C266.693,463.222,266.142,463.163,265.592,463.163z"/>
				<path id="XMLID_344_" style="fill:#1D262D;" d="M272.194,465.711c0.331-0.04,0.566-0.341,0.525-0.672
					c-0.04-0.331-0.341-0.566-0.672-0.526c-0.309,0.038-0.535,0.304-0.53,0.609l-0.416,0.363c-0.418-0.43-0.89-0.813-1.408-1.139
					l-0.404,0.641c1.134,0.715,2.021,1.726,2.563,2.925l0.691-0.313c-0.251-0.554-0.568-1.072-0.942-1.545l0.402-0.351
					C272.065,465.716,272.129,465.719,272.194,465.711z"/>
				<path id="XMLID_343_" style="fill:#1D262D;" d="M265.044,473.372c-0.386,0.023-0.775,0.035-1.157,0.035
					c-0.88,0-1.733-0.061-2.478-0.179c-0.39-0.062-0.846-0.155-1.27-0.292c1.046,1.861,3.069,3.125,5.388,3.125
					c2.855,0,5.262-1.916,5.95-4.504c-0.682,0.449-1.505,0.825-2.459,1.123C267.839,473.047,266.464,473.286,265.044,473.372z"/>
				<path id="XMLID_339_" style="fill:#1D262D;" d="M265.592,464.68c-3.352,0-6.08,2.666-6.08,5.943
					c0,0.426,0.046,0.849,0.137,1.261c0.674,0.483,2.706,0.89,5.348,0.731c2.879-0.173,5.297-0.957,6.672-2.159
					c-0.005-0.195-0.021-0.39-0.045-0.582C271.244,466.913,268.65,464.68,265.592,464.68z M263.432,471.194
					c-1.02,0-1.85-0.83-1.85-1.85c0-1.02,0.83-1.85,1.85-1.85c1.02,0,1.85,0.83,1.85,1.85
					C265.282,470.365,264.452,471.194,263.432,471.194z M268.17,470.286c-0.75,0-1.36-0.61-1.36-1.36s0.61-1.361,1.36-1.361
					c0.75,0,1.361,0.61,1.361,1.361S268.92,470.286,268.17,470.286z"/>
			</g>
			<path id="XMLID_336_" style="fill:#1D262D;" d="M281.595,466.547c-0.295-0.116-0.806-0.309-1.382-0.237
				c-0.551,0.069-0.844,0.341-0.844,1.007v0.866h2.228v1.717h-2.228v5.455h-1.932v-5.455h-1.34v-1.717h1.34v-0.888
				c0-1.68,0.896-2.783,2.568-2.783c0.642,0,1.157,0.122,1.59,0.308L281.595,466.547z"/>
			<path id="XMLID_334_" style="fill:#1D262D;" d="M286.298,469.879c-0.177-0.03-0.358-0.046-0.526-0.046
				c-0.896,0-1.51,0.548-1.51,1.614v3.908h-1.932v-7.172h1.873v0.785c0.451-0.673,1.14-0.977,2.021-0.977
				c0.414,0,0.848,0.128,1.094,0.337L286.298,469.879z"/>
			<path id="XMLID_331_" style="fill:#1D262D;" d="M293.965,471.757c0,0.222-0.015,0.489-0.037,0.651h-5.085
				c0.207,1.036,0.933,1.488,1.843,1.488c0.622,0,1.295-0.252,1.813-0.688l1.132,1.243c-0.814,0.748-1.85,1.088-3.057,1.088
				c-2.198,0-3.723-1.495-3.723-3.753c0-2.258,1.48-3.797,3.627-3.797C292.544,467.99,293.958,469.522,293.965,471.757z
				 M288.851,471.091h3.175c-0.177-0.918-0.733-1.436-1.562-1.436C289.554,469.655,289.021,470.203,288.851,471.091z"/>
			<path id="XMLID_328_" style="fill:#1D262D;" d="M301.618,471.757c0,0.222-0.015,0.489-0.037,0.651h-5.085
				c0.207,1.036,0.932,1.488,1.843,1.488c0.622,0,1.295-0.252,1.813-0.688l1.132,1.243c-0.814,0.748-1.85,1.088-3.057,1.088
				c-2.198,0-3.723-1.495-3.723-3.753c0-2.258,1.48-3.797,3.627-3.797C300.197,467.99,301.611,469.522,301.618,471.757z
				 M296.504,471.091h3.175c-0.178-0.918-0.733-1.436-1.562-1.436C297.207,469.655,296.674,470.203,296.504,471.091z"/>
			<path id="XMLID_325_" style="fill:#1D262D;" d="M309.964,471.764c0,2.154-1.495,3.775-3.471,3.775
				c-0.962,0-1.643-0.378-2.109-0.933v3.708h-1.924v-10.133h1.887v0.792c0.466-0.585,1.155-0.984,2.139-0.984
				C308.469,467.99,309.964,469.61,309.964,471.764z M304.287,471.764c0,1.132,0.747,1.976,1.843,1.976
				c1.14,0,1.85-0.881,1.85-1.976c0-1.095-0.71-1.976-1.85-1.976C305.035,469.788,304.287,470.632,304.287,471.764z"/>
			<path id="XMLID_322_" style="fill:#1D262D;" d="M313.068,465.836c0,0.696-0.54,1.229-1.236,1.229
				c-0.696,0-1.229-0.533-1.229-1.229c0-0.696,0.533-1.243,1.229-1.243C312.527,464.592,313.068,465.14,313.068,465.836z
				 M312.809,475.354h-1.932v-7.172h1.932V475.354z"/>
			<path id="XMLID_320_" style="fill:#1D262D;" d="M316.032,470.736l2.702-2.554h2.368l-3.479,3.375l3.501,3.797h-2.376
				l-2.716-2.901v2.901H314.1v-10.658h1.932V470.736z"/>
		</g>
		<g id="XMLID_27_">
			<path id="XMLID_33_" style="fill:#1D262D;" d="M184.412,475.289v-1.055c-0.527,0.718-1.391,1.23-2.387,1.23
				c-1.846,0-3.149-1.406-3.149-3.706c0-2.256,1.289-3.721,3.149-3.721c0.952,0,1.816,0.469,2.387,1.245v-3.765h1.099v9.77H184.412z
				 M184.412,473.37v-3.208c-0.395-0.615-1.245-1.143-2.124-1.143c-1.421,0-2.27,1.172-2.27,2.739c0,1.567,0.85,2.724,2.27,2.724
				C183.168,474.483,184.017,473.986,184.412,473.37z"/>
			<path id="XMLID_46_" style="fill:#1D262D;" d="M186.932,471.744c0-2.051,1.465-3.706,3.486-3.706c2.139,0,3.398,1.67,3.398,3.794
				v0.279h-5.727c0.088,1.333,1.025,2.446,2.549,2.446c0.805,0,1.626-0.322,2.182-0.894l0.527,0.718
				c-0.703,0.703-1.655,1.084-2.812,1.084C188.44,475.465,186.932,473.956,186.932,471.744z M190.403,468.947
				c-1.509,0-2.256,1.274-2.314,2.358h4.643C192.718,470.25,192.015,468.947,190.403,468.947z"/>
			<path id="XMLID_242_" style="fill:#1D262D;" d="M194.607,474.351l0.571-0.791c0.469,0.542,1.362,1.011,2.329,1.011
				c1.084,0,1.67-0.513,1.67-1.216c0-1.714-4.38-0.659-4.38-3.281c0-1.098,0.952-2.036,2.636-2.036c1.201,0,2.051,0.454,2.622,1.026
				l-0.513,0.762c-0.424-0.513-1.201-0.894-2.109-0.894c-0.967,0-1.567,0.483-1.567,1.113c0,1.552,4.38,0.527,4.38,3.281
				c0,1.187-0.952,2.138-2.783,2.138C196.306,475.465,195.325,475.113,194.607,474.351z"/>
			<path id="XMLID_257_" style="fill:#1D262D;" d="M201.477,466.471c0-0.41,0.337-0.747,0.732-0.747c0.41,0,0.747,0.337,0.747,0.747
				c0,0.41-0.337,0.732-0.747,0.732C201.814,467.203,201.477,466.881,201.477,466.471z M201.667,475.289v-7.075h1.099v7.075H201.667
				z"/>
			<path id="XMLID_260_" style="fill:#1D262D;" d="M204.582,477.105l0.556-0.82c0.586,0.703,1.289,0.967,2.3,0.967
				c1.172,0,2.27-0.571,2.27-2.124v-1.011c-0.513,0.718-1.377,1.26-2.373,1.26c-1.845,0-3.149-1.377-3.149-3.662
				c0-2.27,1.289-3.677,3.149-3.677c0.952,0,1.802,0.469,2.373,1.245v-1.069h1.098v6.87c0,2.344-1.641,3.076-3.369,3.076
				C206.237,478.16,205.417,477.926,204.582,477.105z M209.709,473.253v-3.091c-0.381-0.615-1.23-1.143-2.109-1.143
				c-1.421,0-2.27,1.128-2.27,2.695c0,1.553,0.849,2.695,2.27,2.695C208.478,474.41,209.328,473.868,209.709,473.253z"/>
			<path id="XMLID_270_" style="fill:#1D262D;" d="M217.413,475.289v-4.629c0-1.245-0.63-1.641-1.582-1.641
				c-0.865,0-1.685,0.527-2.095,1.099v5.17h-1.099v-7.075h1.099v1.025c0.498-0.586,1.464-1.201,2.519-1.201
				c1.48,0,2.256,0.747,2.256,2.285v4.966H217.413z"/>
			<path id="XMLID_273_" style="fill:#1D262D;" d="M219.932,471.744c0-2.051,1.465-3.706,3.486-3.706
				c2.139,0,3.398,1.67,3.398,3.794v0.279h-5.727c0.088,1.333,1.025,2.446,2.549,2.446c0.806,0,1.626-0.322,2.183-0.894l0.527,0.718
				c-0.703,0.703-1.655,1.084-2.812,1.084C221.441,475.465,219.932,473.956,219.932,471.744z M223.404,468.947
				c-1.509,0-2.256,1.274-2.314,2.358h4.643C225.718,470.25,225.015,468.947,223.404,468.947z"/>
			<path id="XMLID_277_" style="fill:#1D262D;" d="M233.35,475.289v-1.055c-0.527,0.718-1.392,1.23-2.388,1.23
				c-1.846,0-3.149-1.406-3.149-3.706c0-2.256,1.289-3.721,3.149-3.721c0.952,0,1.817,0.469,2.388,1.245v-3.765h1.098v9.77H233.35z
				 M233.35,473.37v-3.208c-0.396-0.615-1.245-1.143-2.124-1.143c-1.421,0-2.27,1.172-2.27,2.739c0,1.567,0.849,2.724,2.27,2.724
				C232.105,474.483,232.954,473.986,233.35,473.37z"/>
			<path id="XMLID_288_" style="fill:#1D262D;" d="M239.692,475.289v-9.77h1.098v3.765c0.572-0.776,1.421-1.245,2.388-1.245
				c1.845,0,3.149,1.465,3.149,3.721c0,2.299-1.304,3.706-3.149,3.706c-0.996,0-1.86-0.513-2.388-1.23v1.055H239.692z
				 M242.9,474.483c1.436,0,2.285-1.157,2.285-2.724c0-1.568-0.85-2.739-2.285-2.739c-0.864,0-1.728,0.527-2.109,1.143v3.208
				C241.171,473.986,242.036,474.483,242.9,474.483z"/>
			<path id="XMLID_291_" style="fill:#1D262D;" d="M247.528,477.061c0.161,0.073,0.425,0.117,0.601,0.117
				c0.483,0,0.805-0.161,1.055-0.747l0.469-1.069l-2.959-7.148h1.187l2.358,5.8l2.344-5.8h1.201l-3.545,8.51
				c-0.425,1.025-1.143,1.421-2.08,1.435c-0.234,0-0.601-0.044-0.805-0.103L247.528,477.061z"/>
		</g>
	</g>
</g>
</svg>
