<?xml version="1.0" encoding="UTF-8"?>
<svg xmlns="http://www.w3.org/2000/svg" xmlns:xlink="http://www.w3.org/1999/xlink" version="1.1" viewBox="0 0 68 68">
  <defs>
    <style>
      .cls-1 {
        fill: #192530;
      }

      .cls-2 {
        fill: url(#Degradado_sin_nombre_18-4);
      }

      .cls-3 {
        fill: url(#Degradado_sin_nombre_18-5);
      }

      .cls-4 {
        fill: url(#Degradado_sin_nombre_18-6);
      }

      .cls-5 {
        fill: url(#Degradado_sin_nombre_18-7);
      }

      .cls-6 {
        fill: url(#Degradado_sin_nombre_18-8);
      }

      .cls-7 {
        fill: url(#Degradado_sin_nombre_18-9);
      }

      .cls-8 {
        fill: url(#Degradado_sin_nombre_18-2);
      }

      .cls-9 {
        fill: url(#Degradado_sin_nombre_18-3);
      }

      .cls-10 {
        fill: #f9fbfc;
      }

      .cls-11 {
        fill: url(#Degradado_sin_nombre_18);
      }

      .cls-12 {
        fill: url(#Degradado_sin_nombre_18-11);
      }

      .cls-13 {
        fill: url(#Degradado_sin_nombre_18-10);
      }

      .cls-14 {
        fill: url(#Degradado_sin_nombre_18-13);
      }

      .cls-15 {
        fill: url(#Degradado_sin_nombre_18-12);
      }

      .cls-16 {
        fill: url(#Degradado_sin_nombre_18-15);
      }

      .cls-17 {
        fill: url(#Degradado_sin_nombre_18-14);
      }

      .cls-18 {
        fill: url(#Degradado_sin_nombre_18-16);
      }

      .cls-19 {
        fill: url(#Degradado_sin_nombre_18-19);
      }

      .cls-20 {
        fill: url(#Degradado_sin_nombre_18-18);
      }

      .cls-21 {
        fill: url(#Degradado_sin_nombre_18-17);
      }

      .cls-22 {
        fill: url(#Degradado_sin_nombre_18-22);
      }

      .cls-23 {
        fill: url(#Degradado_sin_nombre_18-21);
      }

      .cls-24 {
        fill: url(#Degradado_sin_nombre_18-26);
      }

      .cls-25 {
        fill: url(#Degradado_sin_nombre_18-28);
      }

      .cls-26 {
        fill: url(#Degradado_sin_nombre_18-25);
      }

      .cls-27 {
        fill: url(#Degradado_sin_nombre_18-24);
      }

      .cls-28 {
        fill: url(#Degradado_sin_nombre_18-29);
      }

      .cls-29 {
        fill: url(#Degradado_sin_nombre_18-27);
      }

      .cls-30 {
        fill: url(#Degradado_sin_nombre_18-20);
      }

      .cls-31 {
        fill: url(#Degradado_sin_nombre_18-23);
      }
    </style>
    <linearGradient id="Degradado_sin_nombre_18" data-name="Degradado sin nombre 18" x1="275.13" y1="-75.62" x2="275.13" y2="-17.94" gradientUnits="userSpaceOnUse">
      <stop offset="0" stop-color="#8efdee"/>
      <stop offset=".13" stop-color="#88f2ed"/>
      <stop offset=".35" stop-color="#78d5ec"/>
      <stop offset=".64" stop-color="#5ea7eb"/>
      <stop offset=".98" stop-color="#3a67ea"/>
      <stop offset="1" stop-color="#3863ea"/>
    </linearGradient>
    <linearGradient id="Degradado_sin_nombre_18-2" data-name="Degradado sin nombre 18" x1="275.12" y1="-75.62" x2="275.12" y2="-17.94" xlink:href="#Degradado_sin_nombre_18"/>
    <linearGradient id="Degradado_sin_nombre_18-3" data-name="Degradado sin nombre 18" x1="285.46" y1="-75.62" x2="285.46" y2="-17.94" xlink:href="#Degradado_sin_nombre_18"/>
    <linearGradient id="Degradado_sin_nombre_18-4" data-name="Degradado sin nombre 18" x1="-88.85" y1="-75.62" x2="-88.85" y2="-17.94" xlink:href="#Degradado_sin_nombre_18"/>
    <linearGradient id="Degradado_sin_nombre_18-5" data-name="Degradado sin nombre 18" x1="35.11" y1="-81.94" x2="35.11" y2="-24.26" xlink:href="#Degradado_sin_nombre_18"/>
    <linearGradient id="Degradado_sin_nombre_18-6" data-name="Degradado sin nombre 18" x1="160.02" y1="-1.28" x2="160.02" y2="70.34" xlink:href="#Degradado_sin_nombre_18"/>
    <linearGradient id="Degradado_sin_nombre_18-7" data-name="Degradado sin nombre 18" x1="160.02" y1="94.71" x2="160.02" y2="157.28" xlink:href="#Degradado_sin_nombre_18"/>
    <linearGradient id="Degradado_sin_nombre_18-8" data-name="Degradado sin nombre 18" x1="160.02" y1="-75.62" x2="160.02" y2="-17.94" xlink:href="#Degradado_sin_nombre_18"/>
    <linearGradient id="Degradado_sin_nombre_18-9" data-name="Degradado sin nombre 18" x1="-88.85" y1="-1.28" x2="-88.85" y2="70.34" xlink:href="#Degradado_sin_nombre_18"/>
    <linearGradient id="Degradado_sin_nombre_18-10" data-name="Degradado sin nombre 18" x1="21.79" y1="-1.28" x2="21.79" y2="70.34" xlink:href="#Degradado_sin_nombre_18"/>
    <linearGradient id="Degradado_sin_nombre_18-11" data-name="Degradado sin nombre 18" x1="21.79" y1="-1.28" x2="21.79" y2="70.34" xlink:href="#Degradado_sin_nombre_18"/>
    <linearGradient id="Degradado_sin_nombre_18-12" data-name="Degradado sin nombre 18" x1="41.48" y1="-1.28" x2="41.48" y2="70.34" xlink:href="#Degradado_sin_nombre_18"/>
    <linearGradient id="Degradado_sin_nombre_18-13" data-name="Degradado sin nombre 18" x1="275.13" y1="-1.28" x2="275.13" y2="70.34" xlink:href="#Degradado_sin_nombre_18"/>
    <linearGradient id="Degradado_sin_nombre_18-14" data-name="Degradado sin nombre 18" x1="-88.85" y1="94.71" x2="-88.85" y2="157.28" xlink:href="#Degradado_sin_nombre_18"/>
    <linearGradient id="Degradado_sin_nombre_18-15" data-name="Degradado sin nombre 18" x1="35.11" y1="94.71" x2="35.11" y2="157.28" xlink:href="#Degradado_sin_nombre_18"/>
    <linearGradient id="Degradado_sin_nombre_18-16" data-name="Degradado sin nombre 18" x1="275.13" y1="94.71" x2="275.13" y2="157.28" xlink:href="#Degradado_sin_nombre_18"/>
    <linearGradient id="Degradado_sin_nombre_18-17" data-name="Degradado sin nombre 18" x1="-88.85" y1="189.76" x2="-88.85" y2="245.48" xlink:href="#Degradado_sin_nombre_18"/>
    <linearGradient id="Degradado_sin_nombre_18-18" data-name="Degradado sin nombre 18" x1="35.11" y1="189.76" x2="35.11" y2="245.48" xlink:href="#Degradado_sin_nombre_18"/>
    <linearGradient id="Degradado_sin_nombre_18-19" data-name="Degradado sin nombre 18" x1="168.69" y1="189.76" x2="168.69" y2="245.48" xlink:href="#Degradado_sin_nombre_18"/>
    <linearGradient id="Degradado_sin_nombre_18-20" data-name="Degradado sin nombre 18" x1="154.36" y1="189.76" x2="154.36" y2="245.48" xlink:href="#Degradado_sin_nombre_18"/>
    <linearGradient id="Degradado_sin_nombre_18-21" data-name="Degradado sin nombre 18" x1="151.06" y1="189.76" x2="151.06" y2="245.48" xlink:href="#Degradado_sin_nombre_18"/>
    <linearGradient id="Degradado_sin_nombre_18-22" data-name="Degradado sin nombre 18" x1="275.13" y1="189.76" x2="275.13" y2="245.48" xlink:href="#Degradado_sin_nombre_18"/>
    <linearGradient id="Degradado_sin_nombre_18-23" data-name="Degradado sin nombre 18" x1="-88.85" y1="273.52" x2="-88.85" y2="329.04" xlink:href="#Degradado_sin_nombre_18"/>
    <linearGradient id="Degradado_sin_nombre_18-24" data-name="Degradado sin nombre 18" x1="35.11" y1="273.52" x2="35.11" y2="329.04" xlink:href="#Degradado_sin_nombre_18"/>
    <linearGradient id="Degradado_sin_nombre_18-25" data-name="Degradado sin nombre 18" x1="47.93" y1="273.52" x2="47.93" y2="329.04" xlink:href="#Degradado_sin_nombre_18"/>
    <linearGradient id="Degradado_sin_nombre_18-26" data-name="Degradado sin nombre 18" x1="22.12" y1="273.52" x2="22.12" y2="329.04" xlink:href="#Degradado_sin_nombre_18"/>
    <linearGradient id="Degradado_sin_nombre_18-27" data-name="Degradado sin nombre 18" x1="152.07" y1="273.52" x2="152.07" y2="329.04" xlink:href="#Degradado_sin_nombre_18"/>
    <linearGradient id="Degradado_sin_nombre_18-28" data-name="Degradado sin nombre 18" x1="171.14" y1="273.52" x2="171.14" y2="329.04" xlink:href="#Degradado_sin_nombre_18"/>
    <linearGradient id="Degradado_sin_nombre_18-29" data-name="Degradado sin nombre 18" x1="275.13" y1="273.52" x2="275.13" y2="329.04" xlink:href="#Degradado_sin_nombre_18"/>
  </defs>
  <!-- Generator: Adobe Illustrator 28.6.0, SVG Export Plug-In . SVG Version: 1.2.0 Build 709)  -->
  <g>
    <g id="BACKGROUND">
      <rect class="cls-1" x="-152.67" y="-107.9" width="500" height="500"/>
    </g>
    <g id="OBJECTS">
      <g>
        <path class="cls-11" d="M275.82-31.71c-2.85,0-4.79.05-6.72-.02-1.74-.06-3.49-.06-5.19-.49-2.19-.56-4.08-1.61-5.55-3.38-1.44-1.73-2.15-3.75-2.4-5.95-.18-1.66-.25-3.32-.25-4.99,0-3.28-.02-6.57,0-9.85.01-1.63.06-3.27.31-4.89.46-2.99,1.84-5.45,4.35-7.18,1.52-1.05,3.23-1.62,5.06-1.81,3.95-.42,7.91-.22,11.87-.26,1.69-.02,3.38,0,5.07.07,1.8.08,3.58.22,5.29.87,1.87.71,3.42,1.84,4.61,3.45,1.28,1.73,1.91,3.71,2.07,5.82.38,5.04.19,10.09.17,15.13,0,1.54-.05,3.1-.36,4.63-.45,2.24-1.38,4.22-3.06,5.81-1.37,1.29-2.98,2.09-4.79,2.53-1.1.26-2.22.34-3.35.41-2.68.16-5.36.07-7.12.1ZM290.96-51.11c0-2.39.04-4.78-.07-7.17-.05-1.19-.11-2.39-.46-3.54-.36-1.2-.95-2.25-1.88-3.11-1.3-1.2-2.89-1.67-4.59-1.84-1.82-.17-3.65-.18-5.48-.19-3.12-.02-6.24-.04-9.36.05-1.25.04-2.5.06-3.73.26-1.77.3-3.29,1.05-4.42,2.49-.98,1.26-1.36,2.74-1.52,4.29-.15,1.5-.15,3.01-.17,4.51-.04,3.78-.06,7.55.06,11.33.03,1.09.11,2.19.37,3.26.37,1.52,1.12,2.79,2.34,3.77,1.14.92,2.5,1.33,3.93,1.51,1.47.18,2.96.19,4.44.2,3.86.02,7.73.06,11.59-.05.99-.03,1.98-.08,2.95-.27,1.54-.29,2.91-.9,3.99-2.09.93-1.02,1.43-2.24,1.69-3.57.31-1.59.27-3.21.31-4.82.05-1.68.01-3.36.01-5.04Z"/>
        <path class="cls-8" d="M275.08-41.12c-5.42.03-9.99-4.45-9.95-10.06.04-5.49,4.5-9.92,10.05-9.92,5.5,0,9.93,4.48,9.95,9.98.02,5.52-4.5,10.08-10.05,10ZM275.13-44.69c3.53,0,6.42-2.88,6.4-6.41-.02-3.57-2.81-6.38-6.41-6.41-3.53-.03-6.44,2.9-6.41,6.45.04,3.56,2.86,6.34,6.41,6.38Z"/>
        <path class="cls-9" d="M287.83-61.44c0,1.31-1.05,2.37-2.35,2.36-1.3,0-2.39-1.08-2.38-2.35,0-1.33,1.06-2.39,2.37-2.38,1.35,0,2.36,1.02,2.36,2.37Z"/>
      </g>
      <path class="cls-2" d="M-85.87-59.13v-3.21c0-1.56,1.04-1.93,1.77-1.93h4.5v-6.87l-6.19-.03c-6.88,0-8.44,5.13-8.44,8.41v3.62h-3.98v8.02h4.01v20.05h8.02v-20.05h5.95l.29-3.15.44-4.87h-6.37Z"/>
      <path class="cls-3" d="M55.16-69.68c-1.47.64-3.06,1.08-4.72,1.27,1.7-1,3-2.59,3.62-4.48-1.59.93-3.35,1.6-5.23,1.97-1.5-1.57-3.64-2.56-6-2.56-4.54,0-8.23,3.63-8.23,8.1,0,.64.07,1.25.21,1.85-6.84-.34-12.9-3.56-16.96-8.46-.71,1.2-1.12,2.59-1.12,4.07,0,2.81,1.46,5.29,3.66,6.74-1.35-.04-2.62-.41-3.73-1.01v.1c0,1.04.2,2.02.56,2.94,1,2.54,3.27,4.46,6.04,5.01-.69.18-1.42.28-2.17.28-.53,0-1.04-.05-1.55-.15,1.05,3.22,4.09,5.56,7.68,5.62-2.82,2.17-6.36,3.47-10.22,3.47-.66,0-1.32-.04-1.96-.11,3.64,2.3,7.97,3.64,12.61,3.64,12.86,0,20.76-8.91,22.85-18.15.37-1.63.56-3.28.56-4.89,0-.35,0-.7-.02-1.05,1.61-1.14,3-2.57,4.1-4.19Z"/>
      <path class="cls-4" d="M177.05,40.07h0s-.02-.02-.03-.03c0,0,0,0,0,0h0c-.42-.26-.84-.3-1.11-.4,0,0-.01,0-.02,0-1.8-.57-3.36-1.8-4.52-3.3-.65-.83-1.19-1.74-1.55-2.71,0,0,0,0,0-.01-.14-.42-.15-.88.06-1.16,0,0,0,0,0,0,.33-.46.92-.76,1.56-.99,0,0,0,0,0,0,.7-.24,1.47-.52,2.11-1.08,0,0,0,0,0,0,.1-.09.22-.21.3-.39.02-.04.04-.09.05-.15.04-.17.05-.37-.04-.55h0c-.18-.38-.5-.57-.74-.71h0c-.4-.23-.86-.24-1.26-.11h0s0,0,0,0c-.43.13-.79.29-1.12.33,0,0-.01,0-.02,0-.47.08-.92.1-1.27-.03,0-.05,0-.15-.02-.28h0c-.03-.77.04-1.56.05-2.38h0c.04-1.25.09-2.53-.1-3.82,0,0,0-.01,0-.02-.4-2.18-1.8-4.05-3.57-5.3-1.29-.91-2.82-1.41-4.37-1.55h0c-.53-.05-1.05-.07-1.57-.06-2.1.01-4.28.57-5.98,1.9-1.28,1-2.28,2.32-2.91,3.8,0,0,0,0,0,0-.6,1.52-.55,3.14-.47,4.64h0c.05,1.06.17,2.08.07,3.05,0,.04,0,.05-.01.07-.47.08-.99.05-1.5-.04h0c-.35-.06-.72-.2-1.15-.32,0,0-.01,0-.02,0-.41-.09-.81.02-1.12.25,0,0,0,0-.01,0,0,0-.01.01-.02.01-.25.17-.6.44-.61.92,0,.03,0,.06,0,.09,0,0,0,0,0,0,.05.28.23.49.39.62.16.14.3.22.39.29,0,0,.01.01.02.02.77.51,1.61.73,2.35,1.02h0c.51.22.95.57,1.06,1.01.13.55-.11,1.19-.42,1.81h0c-.83,1.64-2.06,3.06-3.58,4.1-.79.54-1.69.95-2.63,1.2-.01,0-.03,0-.04.01-.19.07-.65.12-.93.55-.02.03-.04.06-.05.1-.1.28.01.57.15.74.13.15.27.24.4.31,0,0,.01,0,.02.01.79.45,1.65.65,2.43.85,0,0,0,0,.01,0,.56.13,1.09.2,1.51.38.02.03.06.18.16.41.14.43.2.94.36,1.47.04.15.18.27.33.3.36.07.55-.05.59-.05.02,0,.03,0,.04,0,1.31-.23,2.63-.43,3.83-.13h0c1.26.33,2.36,1.2,3.6,1.95,0,0,0,0,0,0h0c.82.51,1.77,1.02,2.87,1.05h0s0,0,0,0c.83.05,1.64,0,2.44-.06h.01c.68-.07,1.34-.29,1.91-.66,0,0,.02,0,.03-.01,1.3-.74,2.46-1.63,3.72-2.18,0,0,0,0,0,0,.41-.15.92-.14,1.5-.18h.02c1.05-.03,2.1.02,3.14.16.04,0,.07,0,.11,0,.14-.02.29-.11.36-.2.07-.09.09-.17.11-.22.03-.11.06-.16,0-.07.02-.03.03-.05.04-.08.19-.63.3-1.19.6-1.55.14-.14.38-.2.65-.2.02,0,.04,0,.06,0,.91-.11,1.73-.43,2.5-.71,0,0,.02,0,.03-.01.29-.12.72-.27,1.01-.68,0,0,0,0,0,0h0c.25-.34.13-.81-.22-1.03Z"/>
      <path class="cls-5" d="M179.04,108.06c-2.15,12.09-14.14,22.33-17.74,24.67-3.61,2.33-6.9-.94-8.09-3.41-1.37-2.82-5.46-18.13-6.53-19.4-1.07-1.27-4.29,1.27-4.29,1.27l-1.56-2.05s6.53-7.8,11.5-8.78c5.27-1.03,5.26,8.1,6.53,13.16,1.22,4.9,2.05,7.7,3.12,7.7s3.12-2.73,5.36-6.92c2.25-4.19-.1-7.9-4.49-5.27,1.76-10.53,18.33-13.06,16.18-.98Z"/>
      <path class="cls-6" d="M179.67-59.47s-.39-2.88-1.59-4.15c-1.53-1.66-3.23-1.67-4.02-1.77-5.61-.42-14.03-.42-14.03-.42h-.02s-8.42,0-14.03.42c-.78.09-2.49.1-4.02,1.77-1.2,1.27-1.59,4.15-1.59,4.15,0,0-.4,3.38-.4,6.77v3.17c0,3.39.4,6.77.4,6.77,0,0,.39,2.88,1.59,4.15,1.53,1.67,3.53,1.61,4.42,1.79,3.21.32,13.63.42,13.63.42,0,0,8.42-.02,14.04-.44.78-.1,2.49-.1,4.02-1.77,1.2-1.27,1.59-4.15,1.59-4.15,0,0,.4-3.38.4-6.77v-3.17c0-3.38-.4-6.77-.4-6.77ZM166.72-51.54l-10.83,5.85v-9.01s0-2.74,0-2.74l4.88,2.66,5.95,3.24Z"/>
      <path class="cls-7" d="M-69.57,30.58c-.25-10.15-8.63-18.31-18.93-18.31s-18.48,7.97-18.93,17.97c0,.27-.02.55-.02.83,0,3.55,1,6.87,2.72,9.7l-3.42,10.09,10.48-3.34c2.71,1.5,5.83,2.34,9.16,2.34,10.46,0,18.93-8.41,18.93-18.79,0-.16,0-.32,0-.48ZM-79.21,37.58c-.39,1.08-2.28,2.11-3.13,2.19-.85.08-.85.69-5.57-1.15-4.72-1.85-7.7-6.65-7.93-6.95-.18-.23-1.19-1.57-1.66-3.2-.14-.5-.24-1.03-.24-1.57,0-2.27,1.2-3.38,1.63-3.84.43-.46.93-.58,1.24-.58s.62.04.89.04.66-.16,1.05.77c.39.92,1.32,3.19,1.43,3.42.12.23.19.5.04.81-.11.22-.18.38-.3.55-.05.07-.1.14-.17.22-.23.27-.49.6-.7.81-.23.23-.47.48-.2.94.27.46,1.2,1.97,2.58,3.19,1.77,1.57,3.27,2.06,3.73,2.29.46.23.73.19,1.01-.12.27-.31,1.16-1.34,1.47-1.8.31-.46.62-.38,1.04-.23.43.15,2.71,1.27,3.17,1.5.46.23.77.35.89.54.12.19.12,1.12-.27,2.19Z"/>
      <g>
        <polygon class="cls-13" points="17.74 31.91 17.74 48.93 25.84 48.93 25.84 30.54 25.84 25.76 17.74 25.76 17.74 31.91"/>
        <path class="cls-12" d="M21.79,14.18c-2.24,0-4.05,1.81-4.05,4.05s1.82,4.05,4.05,4.05,4.05-1.81,4.05-4.05-1.81-4.05-4.05-4.05Z"/>
        <path class="cls-15" d="M52.3,32.88c-.55-4.37-2.55-7.11-8.46-7.11-3.5,0-5.85,1.3-6.81,3.13h-.1v-3.13h-6.46v23.16h6.75v-11.48c0-3.03.57-5.96,4.32-5.96s3.99,3.46,3.99,6.15v11.28h6.95v-12.73h0c0-1.19-.05-2.3-.18-3.32Z"/>
      </g>
      <path class="cls-14" d="M275.97,14.18c-9.79,0-14.74,6.8-14.74,12.47,0,1.05.13,2.06.38,2.99.58,2.12,1.84,3.84,3.84,4.63.48.19.9,0,1.03-.5.1-.35.32-1.23.42-1.6.14-.5.08-.67-.3-1.11-.5-.57-.89-1.24-1.12-2.06-.15-.55-.24-1.16-.24-1.85,0-5.04,3.9-9.56,10.15-9.56,5.54,0,8.58,3.27,8.58,7.65,0,1.29-.13,2.53-.38,3.68-.86,4-3.12,6.93-6.15,6.93-2.16,0-3.78-1.73-3.26-3.84.3-1.21.72-2.45,1.09-3.63.4-1.29.73-2.5.73-3.45,0-1.63-.91-2.99-2.78-2.99-2.21,0-3.98,2.21-3.98,5.16,0,.56.06,1.06.14,1.49.19,1.03.52,1.67.52,1.67,0,0-2.26,9.25-2.65,10.87-.79,3.23-.12,7.18-.06,7.58.03.24.35.29.49.12.2-.26,2.83-3.4,3.72-6.53.25-.89,1.45-5.48,1.45-5.48.72,1.32,2.81,2.49,5.04,2.49,5.4,0,9.38-3.88,10.68-9.55.3-1.29.45-2.67.45-4.13,0-5.92-5.18-11.43-13.06-11.43Z"/>
      <path class="cls-17" d="M-89.04,135.68c-4.88-.14-9.6-1.21-13.65-4.36-3.07-2.38-4.97-5.38-4.69-9.43.03-.49-.23-.68-.55-.92-2.24-1.67-2.78-4.39-1.3-6.51,1.5-2.15,4.18-2.63,6.54-1.12.43.27.7.26,1.11,0,3.37-2.19,7.09-3.28,11.08-3.45.71-.03.95-.29,1.09-.96.65-3.22,1.35-6.42,2.04-9.63.26-1.2.46-1.34,1.65-1.09,2.13.44,4.26.87,6.38,1.35.51.12.8.07,1.15-.37,1.01-1.3,2.57-1.65,3.97-.99,1.46.69,2.19,2.16,1.86,3.77-.29,1.4-1.6,2.47-3.14,2.55-1.49.08-2.82-.89-3.28-2.47-.15-.51-.36-.76-.88-.86-1.8-.34-3.6-.71-5.39-1.11-.5-.11-.76-.12-.88.49-.58,2.87-1.2,5.73-1.82,8.59-.11.51.04.71.56.73,4.07.2,7.85,1.31,11.25,3.58.38.25.63.09.94-.11,2.39-1.56,5.06-1.06,6.59,1.21,1.43,2.12.86,4.85-1.35,6.42-.32.23-.62.39-.59.89.31,4.2-1.73,7.23-4.91,9.63-4.03,3.04-8.7,4.06-13.76,4.19ZM-96.16,123.68c1.85,0,3.29-1.44,3.29-3.27,0-1.82-1.49-3.34-3.27-3.33-1.79,0-3.3,1.51-3.3,3.31,0,1.82,1.46,3.3,3.28,3.3ZM-78.28,120.37c-.02-1.81-1.51-3.3-3.31-3.3-1.78,0-3.26,1.52-3.26,3.34,0,1.82,1.49,3.29,3.31,3.27,1.85-.02,3.28-1.48,3.27-3.31ZM-88.83,131.51c.53,0,1.06.05,1.58,0,2.16-.23,4.25-.68,5.98-2.11.45-.37.74-.83.31-1.36-.43-.53-.93-.37-1.38.03-.73.64-1.6,1.06-2.53,1.26-3.74.82-7.4,1.02-10.71-1.43-.4-.29-.82-.26-1.14.1-.36.4-.31.85.07,1.22.54.52,1.16.91,1.84,1.22,1.9.86,3.91,1.14,5.97,1.08Z"/>
      <path class="cls-16" d="M20.27,117.99h6.17c1.37,0,3.71.59,3.71,3.22,0,1.37-1.09,2.98-2.45,2.98h-7.43v-6.2ZM40.07,105.63h11.11v3.71h-11.11v-3.71ZM49.7,117.99h-8.17c.28-2.21,1.93-3.68,4.1-3.68s3.71,1.51,4.06,3.68h0ZM41.29,120.48h13.6v-.63c0-5.11-3.68-9.24-9.25-9.24s-9.29,4.13-9.29,9.24,3.68,9.28,9.29,9.28,8.23-3.19,9.07-7.42h-5.01c-.46,2.17-1.75,3.71-4.06,3.71s-4.17-2.17-4.35-4.94h0ZM35.13,121.71c0-2.7-1.79-5.01-4.21-5.85,1.75-1.09,2.94-3.05,2.94-5.25,0-3.43-2.77-6.2-6.17-6.2h-12.37v24.73h12.37c4.06,0,7.43-3.33,7.43-7.42h0ZM26.43,114.32h-6.17v-4.97h6.17c1.37,0,2.49,1.12,2.49,2.49s-1.12,2.49-2.49,2.49h0Z"/>
      <path class="cls-18" d="M290.33,114.18l-.26-.53-.43-.34c-.56-.44-3.41.03-4.18-.67-.55-.5-.63-1.4-.79-2.61-.31-2.36-.5-2.48-.87-3.28-1.34-2.84-4.98-4.97-7.48-5.27h-6.77c-5.33,0-9.68,4.35-9.68,9.66v11.26c0,5.3,4.36,9.64,9.68,9.64h11.13c5.33,0,9.66-4.34,9.69-9.64l.05-6.41v-1.39s-.08-.43-.08-.43ZM269.66,109.38h5.37c1.02,0,1.85.83,1.85,1.84s-.83,1.85-1.85,1.85h-5.37c-1.02,0-1.86-.84-1.86-1.85s.83-1.84,1.86-1.84ZM280.57,124.11h-10.91c-1.02,0-1.86-.84-1.86-1.84s.83-1.84,1.86-1.84h10.91c1.02,0,1.84.83,1.84,1.84s-.82,1.84-1.84,1.84Z"/>
      <path class="cls-21" d="M-88.85,187.85c3.34,0,6.56.6,9.65,1.88,2.79,1.16,5.27,2.79,7.33,5.01,1.84,1.98,3.16,4.25,3.83,6.88.39,1.54.51,3.09.38,4.67-.2,2.41-1.03,4.6-2.34,6.62-1.05,1.63-2.34,3.06-3.72,4.41-1.87,1.82-3.92,3.44-6.03,4.98-2.38,1.74-4.83,3.37-7.38,4.83-.67.38-1.34.77-2.07,1.03-.27.1-.55.17-.84.17-.43,0-.68-.25-.71-.68-.02-.35.06-.68.11-1.02.12-.82.32-1.62.33-2.45,0-.24-.01-.48-.05-.72-.06-.36-.24-.64-.54-.83-.48-.31-1.02-.48-1.58-.56-4.32-.62-8.24-2.17-11.63-4.97-1.99-1.65-3.57-3.62-4.65-5.98-.66-1.43-1.08-2.93-1.25-4.5-.27-2.54.12-4.98,1.15-7.32.88-2.01,2.15-3.75,3.73-5.27,1.97-1.9,4.24-3.32,6.76-4.35,1.55-.64,3.15-1.1,4.8-1.4,1.56-.29,3.14-.44,4.73-.43ZM-88.99,204.67c.06.08.1.13.13.18,1.35,1.82,2.7,3.64,4.04,5.46.14.19.3.28.54.28.43-.01.86,0,1.29,0,.33,0,.48-.16.48-.49,0-3.03,0-6.07,0-9.1,0-.34-.15-.49-.49-.49-.43,0-.86,0-1.29,0-.39,0-.53.15-.53.53,0,1.73,0,3.46,0,5.18v.19c-.06-.07-.09-.11-.12-.15-1.36-1.84-2.73-3.68-4.08-5.52-.12-.17-.27-.24-.47-.24-.44,0-.88,0-1.32,0-.33,0-.49.16-.49.5,0,3.03,0,6.06,0,9.09,0,.34.16.5.51.5.43,0,.86,0,1.29,0,.38,0,.52-.14.52-.52,0-1.73,0-3.46,0-5.18v-.2ZM-81.05,205.54c0,1.51,0,3.03,0,4.54,0,.34.15.5.49.5,1.94,0,3.88,0,5.82,0,.32,0,.48-.16.48-.48,0-.44,0-.87,0-1.31,0-.4-.13-.53-.53-.53-1.26,0-2.53,0-3.79,0-.11,0-.15-.02-.15-.14,0-.44,0-.87,0-1.31,0-.1.03-.13.12-.12.41,0,.82,0,1.23,0,.88,0,1.75,0,2.63,0,.32,0,.48-.15.48-.48,0-.46,0-.92,0-1.38,0-.13-.03-.25-.13-.35-.11-.1-.24-.11-.38-.11-1.26,0-2.53,0-3.79,0-.12,0-.17-.02-.17-.16.01-.42,0-.84,0-1.26,0-.13.04-.15.16-.15,1.28,0,2.56,0,3.83,0,.32,0,.47-.15.48-.48,0-.44,0-.88,0-1.32,0-.38-.15-.52-.53-.52-1.9,0-3.8,0-5.7,0-.42,0-.56.14-.56.55v4.49ZM-103.12,205.53c0,1.51,0,3.02,0,4.54,0,.36.15.51.5.51,1.92,0,3.85,0,5.77,0,.35,0,.5-.16.51-.51,0-.42,0-.84,0-1.26,0-.41-.13-.54-.53-.54-1.25,0-2.5,0-3.74,0-.21,0-.18.03-.18-.19,0-2.35,0-4.71,0-7.06,0-.37-.15-.52-.51-.52-.43,0-.85,0-1.28,0-.38,0-.53.14-.53.52,0,1.51,0,3.01,0,4.52ZM-95.07,205.54c0,1.52,0,3.03,0,4.55,0,.33.15.49.48.49.45,0,.9,0,1.35,0,.33,0,.48-.16.48-.49,0-3.03,0-6.07,0-9.1,0-.34-.16-.5-.49-.5-.43,0-.86,0-1.29,0-.39,0-.53.14-.53.53,0,1.51,0,3.01,0,4.52Z"/>
      <path class="cls-20" d="M44.47,218.1c.65,1.74,1.31,3.46,1.9,5.2.09.27-.08.8-.31.99-3.43,2.79-7.28,3.53-11.36,1.77-4.02-1.73-6.49-4.77-6.62-9.33-.09-3.13-.06-6.26-.09-9.39,0-.44,0-.87,0-1.49-1.02,0-1.92-.01-2.83,0-.91.01-1.32-.42-1.31-1.32.01-1.4.06-2.81-.02-4.21-.05-.9.33-1.27,1.13-1.55,3.07-1.05,5.09-3.1,5.76-6.35.05-.23.09-.47.11-.71.18-2.21.51-2.52,2.71-2.53.88,0,1.77,0,2.65,0,1.7,0,1.9.21,1.91,1.97,0,1.89,0,3.77,0,5.66,0,.43,0,.87,0,1.46,1.91,0,3.7,0,5.49,0,1.39,0,1.68.29,1.7,1.7.02,1.44,0,2.89.03,4.33.02,1.09-.45,1.65-1.57,1.63-1.83-.02-3.67,0-5.65,0,0,2.21,0,4.17,0,6.12,0,1.04-.01,2.09,0,3.13.03,2.24,1.34,3.49,3.59,3.35.87-.05,1.73-.27,2.77-.44Z"/>
      <g>
        <path class="cls-19" d="M155,188c2.81,0,5.42-.05,8.03.02,1.81.05,3.06,1.06,3.94,2.62,2.96,5.25,5.93,10.48,8.9,15.72,1.89,3.34,3.76,6.69,5.69,10.01,1.06,1.82,1.1,3.56.01,5.38-1.24,2.08-2.41,4.2-3.69,6.46-7.66-13.45-15.22-26.74-22.88-40.2Z"/>
        <path class="cls-30" d="M171.04,227.54c-4.16,0-8.14,0-12.12,0-4.3,0-8.6-.02-12.9,0-2.12.01-3.72-.8-4.79-2.69-1.14-2.01-2.37-3.98-3.56-5.96.28-.38.62-.23.91-.23,8.77,0,17.55,0,26.32-.02.64,0,1.01.17,1.34.74,1.4,2.4,2.84,4.78,4.27,7.17.16.26.29.54.52.98Z"/>
        <path class="cls-23" d="M151.05,195.15c3.41,5.86,6.7,11.53,10.07,17.32h-20.14c3.35-5.77,6.65-11.44,10.06-17.32Z"/>
      </g>
      <path class="cls-22" d="M268.03,208.48c0-4.85,0-9.7,0-14.55,0-.32-.02-.66-.12-.97-.22-.71-.89-1.12-1.67-1.08-.7.03-1.31.53-1.47,1.23-.05.24-.07.5-.07.75,0,5.72,0,11.43,0,17.15,0,3.48-2.21,6.29-5.57,7.07-.62.14-1.27.19-1.91.19-3.72.02-7.43,0-11.15,0-.68,0-.82-.14-.82-.8,0-1.31,0-2.63,0-3.94,0-.6.14-.73.74-.73,3.72,0,7.43,0,11.15,0,1.42,0,2.04-.62,2.04-2.05,0-5.75,0-11.49,0-17.24,0-3.38,2.25-6.18,5.54-6.96,4.02-.96,8.08,1.8,8.66,5.89.06.44.08.89.08,1.34,0,9.57,0,19.14,0,28.7,0,1.19.76,1.93,1.87,1.82.73-.07,1.34-.66,1.42-1.39.02-.24.02-.48.02-.72,0-6.25,0-12.51,0-18.76,0-1.76.43-3.38,1.57-4.74,1.94-2.32,4.44-3.22,7.36-2.47,2.95.76,4.68,2.77,5.29,5.75.09.45.1.92.1,1.38,0,2.52,0,5.05,0,7.57,0,1.22.62,1.85,1.85,1.85,3.72,0,7.43,0,11.15,0,.74,0,.89.15.9.88,0,1.31.02,2.63.03,3.94,0,.43-.23.69-.67.69-4.01,0-8.03.04-12.04-.05-3.16-.07-5.93-2.56-6.52-5.67-.1-.55-.16-1.12-.16-1.69-.02-2.58,0-5.16-.01-7.75,0-1.17-1.14-1.94-2.22-1.54-.61.23-1.04.81-1.07,1.47,0,.16,0,.33,0,.49,0,6.34,0,12.69,0,19.03,0,3.45-2.25,6.27-5.6,7.06-4.24,1-8.5-2.22-8.69-6.56-.01-.3-.01-.6-.01-.9,0-4.57,0-9.13,0-13.7Z"/>
      <path class="cls-31" d="M-79.46,320.25s0,0,0,0c0-3.08,0-6.11,0-9.14,0-1.21-.16-2.39-.59-3.52-.32-.85-.77-1.6-1.5-2.28,1.05-.19,2.03-.34,3.01-.54,1.48-.3,2.9-.77,4.25-1.45,2.59-1.3,4.53-3.24,5.59-5.95,1.48-3.77,1.85-7.64.72-11.58-.42-1.48-1.18-2.81-2.18-3.98-.23-.26-.26-.47-.15-.81.84-2.56.47-5.05-.45-7.51-.11-.3-.32-.32-.57-.33-1.14-.02-2.21.28-3.26.67-1.55.57-3,1.35-4.39,2.23-.31.2-.57.26-.95.16-4.28-1.12-8.62-1.14-12.93-.29-1.52.3-2.75.23-4.08-.66-1.6-1.07-3.42-1.78-5.36-2.07-.32-.05-.56-.08-.75-.09l-.59.21c-.15.18-.25.48-.41.97-.71,2.27-.75,4.56-.13,6.85.09.34.05.56-.18.82-1.89,2.23-2.77,4.83-2.81,7.73-.03,2.31.19,4.59.92,6.79,1.46,4.4,4.63,6.92,8.98,8.13,1.37.38,2.76.63,4.29.8-.42.46-.79.86-1.06,1.33-.42.73-.68,1.52-.78,2.35-.04.34-.18.49-.47.61-3.58,1.46-6.74.45-8.82-2.8-.98-1.54-2.32-2.59-4.14-2.96-.57-.11-1.13-.13-1.68.07-.48.18-.57.48-.26.89.22.3.5.54.82.73,1.8,1.1,2.93,2.74,3.72,4.62,1.22,2.89,3.46,4.24,6.47,4.48,1.36.11,2.72-.03,4.08-.34,0,1.88-.03,3.96-.03,5.81,0,0,.09,5.84,7.78,5.84s7.9-5.84,7.9-5.84Z"/>
      <g>
        <path class="cls-27" d="M22.42,319.98v-.38c0-2.17,0-4.34,0-6.51,0-.22-.08-.35-.24-.48-3.55-2.8-5.96-6.34-6.9-10.8-1-4.77-.18-9.24,2.46-13.33,2.9-4.49,7.04-7.32,12.21-8.56,6.17-1.47,11.96-.49,17.22,3.11,3.75,2.57,6.36,6.05,7.51,10.48,1.57,6.06.26,11.54-3.75,16.31-3.21,3.82-7.38,6.02-12.28,6.85-3.07.52-6.12.37-9.13-.43-.17-.04-.3-.02-.45.06-2.12,1.18-4.25,2.35-6.37,3.52-.08.04-.16.09-.3.16ZM22.15,304.49c.14-.01.24-.1.35-.16,3.08-1.69,6.16-3.39,9.24-5.08.15-.08.25-.12.4.04.97,1.06,1.95,2.1,2.93,3.15.63.68,1.27,1.36,1.9,2.04.13.14.21.15.32,0,.04-.05.09-.09.13-.14,2.3-2.46,4.6-4.92,6.9-7.38,1.21-1.29,2.41-2.58,3.62-3.88.02-.02.07-.04.04-.07-.02-.03-.06,0-.08.03-.12.06-.25.12-.37.18-2.87,1.6-5.75,3.2-8.62,4.8-.21.12-.43.32-.64.31-.22,0-.35-.31-.52-.47-.06-.06-.12-.12-.17-.18-1.49-1.56-2.98-3.12-4.46-4.68-.1-.1-.15-.12-.26,0-.35.39-.72.78-1.08,1.16-3.16,3.37-6.32,6.74-9.47,10.12-.06.06-.16.1-.14.22-.01-.05-.03-.02-.05,0,0,0,0,.02,0,.02.03.02.04,0,.05-.03Z"/>
        <path class="cls-26" d="M47.89,293.04s.06-.06.08-.03c.03.03-.03.05-.04.07-.01-.01-.02-.03-.04-.04Z"/>
        <path class="cls-24" d="M22.15,304.49s-.02.05-.05.03c0,0,0-.02,0-.02.02-.02.04-.04.05,0h0Z"/>
      </g>
      <g>
        <path class="cls-29" d="M151.8,276.95c4.33-.04,8.42.9,12.16,3.13,3.38,2.02,5.98,4.74,7.45,8.45.3.76.52,1.56.69,2.36.06.26-.02.29-.25.29-2.07-.05-4.12.12-6.13.63-3.77.97-7.06,2.76-9.64,5.72-2.35,2.69-3.58,5.82-3.49,9.42.03,1.19.22,2.36.56,3.5.07.24.03.29-.22.29-2.19.02-4.37-.11-6.51-.63-.37-.09-.73-.23-1.11-.32-.46-.11-.93-.14-1.37.11-1.54.87-3.07,1.75-4.6,2.64-.25.15-.5.14-.73,0-.22-.14-.3-.37-.24-.63.29-1.23.59-2.46.95-3.68.06-.2.18-.36.17-.59-.02-.5-.21-.89-.63-1.18-1.51-1.06-2.82-2.33-3.91-3.82-2.15-2.94-3.18-6.22-2.91-9.87.24-3.33,1.54-6.23,3.7-8.75,2.57-2.99,5.82-4.93,9.56-6.06,2.29-.69,4.37-.98,6.48-1.01ZM161.61,288.52c.01-1.42-1.3-2.75-2.77-2.68-1.52.07-2.64,1.33-2.56,2.82.08,1.43,1.37,2.6,2.79,2.51,1.5-.09,2.63-1.27,2.54-2.65ZM142.81,288.48c-.03,1.43,1.17,2.67,2.63,2.7,1.44.03,2.68-1.17,2.71-2.62.03-1.46-1.17-2.69-2.64-2.72-1.44-.03-2.66,1.17-2.69,2.64Z"/>
        <path class="cls-25" d="M154.24,306.54c.05-3.58,1.46-6.57,3.97-9.07,2.5-2.48,5.55-3.96,8.99-4.63,4.06-.8,8.02-.43,11.82,1.23,3.26,1.43,5.88,3.6,7.58,6.77,2.43,4.54,1.76,9.91-1.68,13.9-.77.89-1.62,1.71-2.6,2.37-.61.41-.73.99-.59,1.61.23.96.48,1.91.82,2.84.08.21.03.41-.13.57-.16.15-.32.2-.54.1-.8-.38-1.53-.87-2.3-1.31-.52-.29-1.02-.6-1.54-.89-.4-.23-.8-.33-1.28-.19-2.24.67-4.54.92-6.88.76-4.44-.31-8.39-1.81-11.63-4.95-2.11-2.04-3.45-4.51-3.89-7.44-.03-.22-.06-.43-.07-.65-.02-.34-.03-.69-.05-1.04ZM176.75,304.26c1.27,0,2.27-1.02,2.27-2.29,0-1.27-1.02-2.28-2.28-2.28-1.28,0-2.29,1.02-2.28,2.31,0,1.26,1.02,2.26,2.3,2.26ZM165.53,304.26c1.27,0,2.29-.99,2.3-2.26,0-1.27-.99-2.3-2.25-2.31-1.28-.01-2.31,1-2.31,2.28,0,1.27,1,2.28,2.27,2.29Z"/>
      </g>
      <path class="cls-28" d="M258.1,308.42c.94,1.07,1.99,2.03,3.12,2.89,1.78,1.34,3.73,2.37,5.83,3.12.15.05.15.09.06.2-.52.69-1.04,1.38-1.56,2.08-.07.1-.15.13-.27.12-1.19-.05-2.36-.24-3.52-.51-2.46-.57-4.77-1.5-6.87-2.92-1.25-.84-2.37-1.82-3.37-2.95-.06-.06-.06-.13-.06-.21.07-1.11.17-2.21.28-3.31.12-1.16.28-2.32.47-3.47.59-3.59,1.45-7.11,2.72-10.52.74-2,1.6-3.95,2.69-5.79.18-.31.41-.56.71-.77,2.16-1.51,4.51-2.64,7.05-3.37,1.03-.29,2.08-.5,3.14-.61.11-.01.17.01.22.12.12.26.25.52.39.78.06.11.06.14-.08.17-1.28.3-2.54.69-3.75,1.2-1.89.8-3.61,1.88-5.18,3.19-.3.25-.59.5-.88.76-.03.03-.07.05-.08.1.07.02.12-.03.17-.06,1.51-.76,3.03-1.51,4.6-2.12,1.83-.71,3.71-1.24,5.65-1.56,2.27-.38,4.55-.49,6.85-.41,3.08.1,6.08.61,8.98,1.64,1.9.68,3.71,1.55,5.51,2.46.05.03.11.05.16.08.02,0,.04.03.05,0,0,0-.02-.02-.03-.03-.5-.48-1.04-.91-1.58-1.35-1.86-1.5-3.96-2.56-6.23-3.3-.7-.23-1.41-.43-2.12-.6-.1-.03-.12-.05-.07-.15.13-.25.27-.5.38-.76.06-.15.15-.17.3-.16.83.09,1.66.22,2.47.43,2.88.73,5.5,2.02,7.92,3.74.11.08.2.18.27.29.83,1.32,1.5,2.72,2.1,4.15.92,2.17,1.66,4.4,2.26,6.67.56,2.14,1,4.31,1.33,6.5.25,1.64.43,3.29.56,4.95.03.36.05.73.08,1.09,0,.11-.02.18-.09.26-1.84,2.08-4.07,3.6-6.62,4.68-1.6.68-3.26,1.14-4.97,1.43-.72.12-1.44.21-2.16.23-.1,0-.16-.02-.21-.1-.53-.71-1.06-1.42-1.6-2.13-.09-.12-.04-.14.06-.17,2.01-.71,3.88-1.68,5.6-2.94,1.23-.9,2.36-1.92,3.37-3.07.01-.02.03-.03.04-.05.02,0,.03,0,.05-.01h0s-.02-.01-.04-.01c-.03,0,0,.02,0,.03-.04-.04-.06,0-.08.02-.42.29-.84.59-1.27.88-1.92,1.26-3.97,2.24-6.16,2.94-1.48.47-2.99.81-4.53,1.04-2.25.33-4.52.42-6.79.32-2.99-.13-5.9-.64-8.72-1.65-2.27-.82-4.37-1.94-6.32-3.36-.07-.05-.15-.1-.23-.15-.02-.02-.04-.07-.08-.02,0-.01.02-.03,0-.03-.01,0-.02,0-.04.01,0,0,0,0,0,0,0,0,0,0,0,0,.01,0,.03.01.05.02l.04.05ZM264.37,301.71c.01.25.01.46.04.67.15,1.13.62,2.1,1.5,2.86,1.39,1.19,3.43,1.09,4.7-.22.7-.72,1.11-1.57,1.24-2.56.19-1.52-.19-2.86-1.28-3.96-1.36-1.38-3.57-1.35-4.91.04-.87.9-1.26,1.99-1.29,3.18ZM285.89,301.94c0-1.28-.34-2.28-1.04-3.13-.7-.85-1.6-1.33-2.71-1.34-1.11,0-2.01.48-2.72,1.32-.57.67-.91,1.46-1.01,2.33-.19,1.62.25,3.03,1.5,4.12,1.36,1.19,3.4,1.09,4.67-.21.89-.91,1.29-2.01,1.31-3.09ZM259.15,288.75s0,0-.01-.01c0,0,0,.01-.01.02,0,0,0,0,0,.01,0,0,0-.01.01-.02Z"/>
    </g>
    <g id="DESIGNED_BY_FREEPIK">
      <g>
        <g>
          <g>
            <path class="cls-10" d="M107.43,357.56c-.43.44-.8.93-1.11,1.45l-.47-.24c-.07-.3-.35-.5-.66-.47-.33.04-.57.34-.53.67.04.33.34.57.67.53.07,0,.13-.03.18-.05l.45.23c-.25.55-.43,1.14-.54,1.74l.75.13c.23-1.31.85-2.51,1.79-3.47l-.54-.53Z"/>
            <path class="cls-10" d="M112.92,355.26c-.17,0-.34,0-.51.02l-.07-.63c.19-.15.3-.39.27-.64-.05-.39-.4-.67-.8-.63-.39.05-.67.4-.63.8.03.25.19.46.4.56l.07.62c-.71.12-1.4.33-2.06.65l.33.68c.93-.45,1.94-.67,3-.67.5,0,.99.05,1.47.16l.16-.74c-.53-.12-1.09-.17-1.64-.17Z"/>
            <path class="cls-10" d="M119.52,357.81c.33-.04.57-.34.53-.67-.04-.33-.34-.57-.67-.53-.31.04-.54.3-.53.61l-.42.36c-.42-.43-.89-.81-1.41-1.14l-.4.64c1.13.71,2.02,1.73,2.56,2.93l.69-.31c-.25-.55-.57-1.07-.94-1.55l.4-.35c.06.01.13.02.19,0Z"/>
            <path class="cls-10" d="M112.37,365.47c-.39.02-.77.03-1.16.03-.88,0-1.73-.06-2.48-.18-.39-.06-.85-.15-1.27-.29,1.05,1.86,3.07,3.12,5.39,3.12,2.86,0,5.26-1.92,5.95-4.5-.68.45-1.51.83-2.46,1.12-1.18.37-2.55.61-3.97.69Z"/>
            <path class="cls-10" d="M112.92,356.78c-3.35,0-6.08,2.67-6.08,5.94,0,.43.05.85.14,1.26.67.48,2.71.89,5.35.73,2.88-.17,5.3-.96,6.67-2.16,0-.19-.02-.39-.05-.58-.38-2.96-2.97-5.2-6.03-5.2ZM110.76,363.29c-1.02,0-1.85-.83-1.85-1.85s.83-1.85,1.85-1.85,1.85.83,1.85,1.85-.83,1.85-1.85,1.85ZM115.5,362.39c-.75,0-1.36-.61-1.36-1.36s.61-1.36,1.36-1.36,1.36.61,1.36,1.36-.61,1.36-1.36,1.36Z"/>
          </g>
          <path class="cls-10" d="M128.92,358.65c-.29-.12-.81-.31-1.38-.24-.55.07-.84.34-.84,1.01v.87h2.23v1.72h-2.23v5.45h-1.93v-5.45h-1.34v-1.72h1.34v-.89c0-1.68.9-2.78,2.57-2.78.64,0,1.16.12,1.59.31v1.73Z"/>
          <path class="cls-10" d="M133.62,361.98c-.18-.03-.36-.05-.53-.05-.9,0-1.51.55-1.51,1.61v3.91h-1.93v-7.17h1.87v.78c.45-.67,1.14-.98,2.02-.98.41,0,.85.13,1.09.34l-1.02,1.55Z"/>
          <path class="cls-10" d="M141.29,363.86c0,.22-.01.49-.04.65h-5.08c.21,1.04.93,1.49,1.84,1.49.62,0,1.3-.25,1.81-.69l1.13,1.24c-.81.75-1.85,1.09-3.06,1.09-2.2,0-3.72-1.5-3.72-3.75s1.48-3.8,3.63-3.8,3.48,1.53,3.49,3.77ZM136.18,363.19h3.18c-.18-.92-.73-1.44-1.56-1.44-.91,0-1.44.55-1.61,1.44Z"/>
          <path class="cls-10" d="M148.94,363.86c0,.22-.01.49-.04.65h-5.08c.21,1.04.93,1.49,1.84,1.49.62,0,1.3-.25,1.81-.69l1.13,1.24c-.81.75-1.85,1.09-3.06,1.09-2.2,0-3.72-1.5-3.72-3.75s1.48-3.8,3.63-3.8,3.48,1.53,3.49,3.77ZM143.83,363.19h3.18c-.18-.92-.73-1.44-1.56-1.44-.91,0-1.44.55-1.61,1.44Z"/>
          <path class="cls-10" d="M157.29,363.86c0,2.15-1.5,3.77-3.47,3.77-.96,0-1.64-.38-2.11-.93v3.71h-1.92v-10.13h1.89v.79c.47-.58,1.15-.98,2.14-.98,1.98,0,3.48,1.62,3.48,3.77ZM151.61,363.86c0,1.13.75,1.98,1.84,1.98s1.85-.88,1.85-1.98-.71-1.98-1.85-1.98-1.84.84-1.84,1.98Z"/>
          <path class="cls-10" d="M160.39,357.93c0,.7-.54,1.23-1.24,1.23s-1.23-.53-1.23-1.23.53-1.24,1.23-1.24,1.24.55,1.24,1.24ZM160.13,367.45h-1.93v-7.17h1.93v7.17Z"/>
          <path class="cls-10" d="M163.36,362.83l2.7-2.55h2.37l-3.48,3.38,3.5,3.8h-2.38l-2.72-2.9v2.9h-1.93v-10.66h1.93v6.04Z"/>
        </g>
        <g>
          <path class="cls-10" d="M31.74,367.39v-1.05c-.53.72-1.39,1.23-2.39,1.23-1.85,0-3.15-1.41-3.15-3.71s1.29-3.72,3.15-3.72c.95,0,1.82.47,2.39,1.25v-3.76h1.1v9.77h-1.1ZM31.74,365.47v-3.21c-.4-.62-1.24-1.14-2.12-1.14-1.42,0-2.27,1.17-2.27,2.74s.85,2.72,2.27,2.72c.88,0,1.73-.5,2.12-1.11Z"/>
          <path class="cls-10" d="M34.26,363.84c0-2.05,1.46-3.71,3.49-3.71,2.14,0,3.4,1.67,3.4,3.79v.28h-5.73c.09,1.33,1.03,2.45,2.55,2.45.81,0,1.63-.32,2.18-.89l.53.72c-.7.7-1.65,1.08-2.81,1.08-2.09,0-3.6-1.51-3.6-3.72ZM37.73,361.05c-1.51,0-2.26,1.27-2.31,2.36h4.64c-.01-1.05-.72-2.36-2.33-2.36Z"/>
          <path class="cls-10" d="M41.93,366.45l.57-.79c.47.54,1.36,1.01,2.33,1.01,1.08,0,1.67-.51,1.67-1.22,0-1.71-4.38-.66-4.38-3.28,0-1.1.95-2.04,2.64-2.04,1.2,0,2.05.45,2.62,1.03l-.51.76c-.42-.51-1.2-.89-2.11-.89-.97,0-1.57.48-1.57,1.11,0,1.55,4.38.53,4.38,3.28,0,1.19-.95,2.14-2.78,2.14-1.16,0-2.14-.35-2.86-1.11Z"/>
          <path class="cls-10" d="M48.8,358.57c0-.41.34-.75.73-.75s.75.34.75.75-.34.73-.75.73-.73-.32-.73-.73ZM48.99,367.39v-7.07h1.1v7.07h-1.1Z"/>
          <path class="cls-10" d="M51.91,369.2l.56-.82c.59.7,1.29.97,2.3.97,1.17,0,2.27-.57,2.27-2.12v-1.01c-.51.72-1.38,1.26-2.37,1.26-1.85,0-3.15-1.38-3.15-3.66s1.29-3.68,3.15-3.68c.95,0,1.8.47,2.37,1.25v-1.07h1.1v6.87c0,2.34-1.64,3.08-3.37,3.08-1.2,0-2.02-.23-2.86-1.05ZM57.03,365.35v-3.09c-.38-.62-1.23-1.14-2.11-1.14-1.42,0-2.27,1.13-2.27,2.7s.85,2.7,2.27,2.7c.88,0,1.73-.54,2.11-1.16Z"/>
          <path class="cls-10" d="M64.74,367.39v-4.63c0-1.24-.63-1.64-1.58-1.64-.86,0-1.68.53-2.09,1.1v5.17h-1.1v-7.07h1.1v1.03c.5-.59,1.46-1.2,2.52-1.2,1.48,0,2.26.75,2.26,2.28v4.97h-1.1Z"/>
          <path class="cls-10" d="M67.26,363.84c0-2.05,1.46-3.71,3.49-3.71,2.14,0,3.4,1.67,3.4,3.79v.28h-5.73c.09,1.33,1.03,2.45,2.55,2.45.81,0,1.63-.32,2.18-.89l.53.72c-.7.7-1.66,1.08-2.81,1.08-2.09,0-3.6-1.51-3.6-3.72ZM70.73,361.05c-1.51,0-2.26,1.27-2.31,2.36h4.64c-.01-1.05-.72-2.36-2.33-2.36Z"/>
          <path class="cls-10" d="M80.68,367.39v-1.05c-.53.72-1.39,1.23-2.39,1.23-1.85,0-3.15-1.41-3.15-3.71s1.29-3.72,3.15-3.72c.95,0,1.82.47,2.39,1.25v-3.76h1.1v9.77h-1.1ZM80.68,365.47v-3.21c-.4-.62-1.25-1.14-2.12-1.14-1.42,0-2.27,1.17-2.27,2.74s.85,2.72,2.27,2.72c.88,0,1.73-.5,2.12-1.11Z"/>
          <path class="cls-10" d="M87.02,367.39v-9.77h1.1v3.76c.57-.78,1.42-1.25,2.39-1.25,1.85,0,3.15,1.46,3.15,3.72s-1.3,3.71-3.15,3.71c-1,0-1.86-.51-2.39-1.23v1.05h-1.1ZM90.23,366.58c1.44,0,2.29-1.16,2.29-2.72s-.85-2.74-2.29-2.74c-.86,0-1.73.53-2.11,1.14v3.21c.38.62,1.25,1.11,2.11,1.11Z"/>
          <path class="cls-10" d="M94.85,369.16c.16.07.42.12.6.12.48,0,.81-.16,1.05-.75l.47-1.07-2.96-7.15h1.19l2.36,5.8,2.34-5.8h1.2l-3.54,8.51c-.42,1.03-1.14,1.42-2.08,1.44-.23,0-.6-.04-.81-.1l.18-1Z"/>
        </g>
      </g>
    </g>
  </g>
</svg>